<svg width="60" height="60" viewBox="0 0 60 60" fill="none" xmlns="http://www.w3.org/2000/svg">
<g id="analysis 1" clip-path="url(#clip0_1147_14632)">
<g id="Group">
<path id="Vector" d="M9.86251 32.1389C9.86251 33.6404 8.65354 34.8575 7.16221 34.8575C5.67088 34.8575 4.46191 33.6404 4.46191 32.1389C4.46191 30.6374 5.67088 29.4204 7.16221 29.4204C8.65354 29.4204 9.86251 30.6374 9.86251 32.1389Z" stroke="#2C2C2C" stroke-width="2" stroke-miterlimit="10" stroke-linecap="round" stroke-linejoin="round"/>
<path id="Vector_2" d="M21.1903 26.4269C21.1903 27.9284 19.9812 29.1455 18.49 29.1455C16.9985 29.1455 15.7896 27.9284 15.7896 26.4269C15.7896 24.9255 16.9985 23.7083 18.49 23.7083C19.9812 23.7083 21.1903 24.9255 21.1903 26.4269Z" stroke="#2C2C2C" stroke-width="2" stroke-miterlimit="10" stroke-linecap="round" stroke-linejoin="round"/>
<path id="Vector_3" d="M32.5184 15.003C32.5184 16.5044 31.3094 17.7215 29.8181 17.7215C28.3266 17.7215 27.1177 16.5044 27.1177 15.003C27.1177 13.5014 28.3266 12.2844 29.8181 12.2844C31.3094 12.2844 32.5184 13.5014 32.5184 15.003Z" stroke="#2C2C2C" stroke-width="2" stroke-miterlimit="10" stroke-linecap="round" stroke-linejoin="round"/>
<path id="Vector_4" d="M43.8465 20.7149C43.8465 22.2164 42.6375 23.4334 41.1462 23.4334C39.6549 23.4334 38.4458 22.2164 38.4458 20.7149C38.4458 19.2133 39.6549 17.9963 41.1462 17.9963C42.6375 17.9963 43.8465 19.2133 43.8465 20.7149Z" stroke="#2C2C2C" stroke-width="2" stroke-miterlimit="10" stroke-linecap="round" stroke-linejoin="round"/>
<path id="Vector_5" d="M55.1745 3.57877C55.1745 5.0803 53.9656 6.29733 52.4743 6.29733C50.9829 6.29733 49.7739 5.0803 49.7739 3.57877C49.7739 2.07723 50.9829 0.8602 52.4743 0.8602C53.9656 0.8602 55.1745 2.07723 55.1745 3.57877Z" stroke="#2C2C2C" stroke-width="2" stroke-miterlimit="10" stroke-linecap="round" stroke-linejoin="round"/>
<path id="Vector_6" d="M42.6421 18.4517L50.9781 5.84194" stroke="#2C2C2C" stroke-width="2" stroke-miterlimit="10" stroke-linecap="round" stroke-linejoin="round"/>
<path id="Vector_7" d="M32.2324 16.2204L38.7316 19.4975" stroke="#2C2C2C" stroke-width="2" stroke-miterlimit="10" stroke-linecap="round" stroke-linejoin="round"/>
<path id="Vector_8" d="M20.3975 24.503L27.91 16.9269" stroke="#2C2C2C" stroke-width="2" stroke-miterlimit="10" stroke-linecap="round" stroke-linejoin="round"/>
<path id="Vector_9" d="M9.57617 30.9214L16.0755 27.6443" stroke="#2C2C2C" stroke-width="2" stroke-miterlimit="10" stroke-linecap="round" stroke-linejoin="round"/>
<path id="Vector_10" d="M10.0826 42.2018H4.24153C4.04786 42.2018 3.86212 42.2792 3.72517 42.4171C3.58822 42.5549 3.51126 42.7419 3.51123 42.9369V59.1211H10.8128V42.9369C10.8128 42.8403 10.7939 42.7447 10.7572 42.6555C10.7205 42.5663 10.6668 42.4853 10.599 42.417C10.5312 42.3488 10.4507 42.2946 10.3621 42.2577C10.2735 42.2208 10.1785 42.2017 10.0826 42.2018Z" stroke="#2C2C2C" stroke-width="2" stroke-miterlimit="10" stroke-linecap="round" stroke-linejoin="round"/>
<path id="Vector_11" d="M21.4102 36.4896H15.5693C15.3756 36.4896 15.1898 36.5671 15.0528 36.705C14.9159 36.8428 14.8389 37.0299 14.8389 37.2249V59.1211H22.1405V37.2249C22.1405 37.0299 22.0636 36.8429 21.9266 36.705C21.7897 36.5671 21.6039 36.4897 21.4102 36.4896Z" stroke="#2C2C2C" stroke-width="2" stroke-miterlimit="10" stroke-linecap="round" stroke-linejoin="round"/>
<path id="Vector_12" d="M32.7389 25.0159H26.8979C26.7042 25.0159 26.5185 25.0933 26.3815 25.2312C26.2445 25.369 26.1675 25.556 26.1675 25.751V59.121H33.4692V25.751C33.4691 25.556 33.3922 25.369 33.2552 25.2312C33.1183 25.0933 32.9325 25.0159 32.7389 25.0159Z" stroke="#2C2C2C" stroke-width="2" stroke-miterlimit="10" stroke-linecap="round" stroke-linejoin="round"/>
<path id="Vector_13" d="M1.55713 59.1211H58.0789" stroke="#2C2C2C" stroke-width="2" stroke-miterlimit="10" stroke-linecap="round" stroke-linejoin="round"/>
<path id="Vector_14" d="M39.1082 30.7777H38.2254C38.0317 30.7777 37.846 30.8552 37.709 30.9931C37.5721 31.131 37.4951 31.318 37.4951 31.513V59.1211H44.7967V31.513C44.7966 31.318 44.7197 31.131 44.5827 30.9931C44.4458 30.8552 44.2601 30.7777 44.0664 30.7777H43.1836" stroke="#2C2C2C" stroke-width="2" stroke-miterlimit="10" stroke-linecap="round" stroke-linejoin="round"/>
<path id="Vector_15" d="M56.1248 34.8195V14.2967C56.1248 14.1017 56.0479 13.9147 55.9109 13.7768C55.774 13.6389 55.5883 13.5614 55.3946 13.5613H49.5535C49.3598 13.5614 49.1741 13.6389 49.0371 13.7768C48.9002 13.9147 48.8232 14.1017 48.8232 14.2967V59.1211H56.1248V38.9224" stroke="#2C2C2C" stroke-width="2" stroke-miterlimit="10" stroke-linecap="round" stroke-linejoin="round"/>
</g>
</g>
<defs>
<clipPath id="clip0_1147_14632">
<rect width="60" height="60" fill="white"/>
</clipPath>
</defs>
</svg>
