<svg width="60" height="60" viewBox="0 0 60 60" fill="none" xmlns="http://www.w3.org/2000/svg">
<g id="gear 1" clip-path="url(#clip0_1266_743)">
<g id="Group">
<path id="Vector" d="M28.1811 37.677C28.6946 38.7681 28.9817 39.987 28.9817 41.2729C28.9817 45.9422 25.1965 49.7273 20.5272 49.7273C15.858 49.7273 12.0728 45.9421 12.0728 41.2729C12.0728 36.6036 15.8579 32.8184 20.5272 32.8184C22.5405 32.8184 24.3894 33.5221 25.8415 34.697" stroke="#2C2C2C" stroke-width="2" stroke-miterlimit="10" stroke-linecap="round" stroke-linejoin="round"/>
<path id="Vector_2" d="M24.2847 19.6669V12.1518H28.0422L20.5271 0.879028L13.012 12.1518H16.7695V19.6669M36.4967 26.2425V19.6669H39.315L33.6786 11.2123L28.0422 19.6669H30.8604V23.4244M4.5575 26.2425V19.6669H1.73926L7.37563 11.2123L13.012 19.6669H10.1939V23.4244M38.3143 39.9163C38.2425 39.0932 37.5799 38.4442 36.7565 38.3756L34.6407 38.1993C34.2699 36.4893 33.5935 34.8963 32.6763 33.471L34.0516 31.8455C34.5854 31.2148 34.595 30.2873 34.0638 29.6545C33.7732 29.3072 33.4676 28.9727 33.1479 28.652C32.8272 28.3322 32.4927 28.0266 32.1453 27.7361C31.5125 27.2048 30.5851 27.2145 29.9544 27.7481L28.3289 29.1236C26.9035 28.2063 25.3105 27.5298 23.6006 27.1591L23.4242 25.0433C23.3555 24.22 22.7067 23.5573 21.8836 23.4856C21.4365 23.4465 20.9846 23.4244 20.5271 23.4244C20.0696 23.4244 19.6177 23.4465 19.1707 23.4856C18.3475 23.5574 17.6986 24.22 17.63 25.0433L17.4536 27.1591C15.7436 27.5299 14.1506 28.2063 12.7254 29.1236L11.0998 27.7481C10.4691 27.2145 9.54172 27.2047 8.90891 27.7361C8.56158 28.0267 8.22708 28.3323 7.90637 28.652C7.58664 28.9727 7.28103 29.3072 6.99043 29.6545C6.45922 30.2873 6.46883 31.2148 7.00262 31.8455L8.37793 33.471C7.4607 34.8963 6.78418 36.4894 6.41351 38.1993L4.2977 38.3756C3.47434 38.4442 2.81176 39.0932 2.73992 39.9163C2.69983 40.3674 2.67942 40.82 2.67875 41.2729C2.67875 41.7304 2.7009 42.1822 2.73992 42.6293C2.81176 43.4524 3.47434 44.1014 4.2977 44.17L6.41351 44.3463C6.7843 46.0563 7.4607 47.6494 8.37793 49.0746L7.00262 50.7C6.46883 51.3307 6.45922 52.2581 6.99043 52.8911C7.28106 53.2384 7.58666 53.5729 7.90637 53.8936C8.2298 54.217 8.56508 54.5209 8.90891 54.8095C9.54172 55.3407 10.4691 55.3311 11.0998 54.7973L12.7254 53.422C14.1507 54.3393 15.7437 55.0158 17.4536 55.3865L17.63 57.5022C17.6987 58.3255 18.3475 58.9882 19.1707 59.0599C19.6177 59.0989 20.0696 59.1212 20.5271 59.1212C20.9846 59.1212 21.4365 59.0989 21.8836 59.0599C22.7067 58.9881 23.3557 58.3255 23.4242 57.5022L23.6006 55.3865C25.3105 55.0157 26.9036 54.3393 28.3289 53.422L29.9544 54.7973C30.5851 55.331 31.5125 55.3407 32.1453 54.8095C32.4926 54.5189 32.8271 54.2133 33.1479 53.8936C33.4676 53.5729 33.7732 53.2384 34.0638 52.8911C34.595 52.2582 34.5854 51.3308 34.0516 50.7L32.6763 49.0746C33.5935 47.6493 34.27 46.0562 34.6407 44.3463L36.7565 44.17C37.5799 44.1013 38.2425 43.4524 38.3143 42.6293C38.3544 42.1783 38.3748 41.7257 38.3755 41.2729C38.3755 40.8152 38.3533 40.3635 38.3143 39.9163Z" stroke="#2C2C2C" stroke-width="2" stroke-miterlimit="10" stroke-linecap="round" stroke-linejoin="round"/>
</g>
</g>
<defs>
<clipPath id="clip0_1266_743">
<rect width="60" height="60" fill="white"/>
</clipPath>
</defs>
</svg>
