<svg width="60" height="60" viewBox="0 0 60 60" fill="none" xmlns="http://www.w3.org/2000/svg">
<g id="web-development 1" clip-path="url(#clip0_1147_14584)">
<g id="Group">
<path id="Vector" d="M50.812 1.73914H55.9911C57.2447 1.73914 58.261 2.75539 58.261 4.00899V30.7707C58.261 32.0243 57.2447 33.0406 55.9911 33.0406H53.1142M6.60911 33.0406H4.00911C2.75551 33.0406 1.73926 32.0243 1.73926 30.7707V4.00899C1.73926 2.75539 2.75551 1.73914 4.00911 1.73914H47.2865M58.261 7.68654H1.73926" stroke="#2C2C2C" stroke-width="2" stroke-miterlimit="10" stroke-linecap="round" stroke-linejoin="round"/>
<path id="Vector_2" d="M50.7632 53.4717H9.23756C8.00181 53.4717 7 52.4698 7 51.2341V26.1021C7 24.8663 8.00181 23.8645 9.23756 23.8645H50.7632C51.9989 23.8645 53.0007 24.8663 53.0007 26.1021V51.2341C53.0008 52.4698 51.999 53.4717 50.7632 53.4717Z" stroke="#2C2C2C" stroke-width="2" stroke-miterlimit="10" stroke-linecap="round" stroke-linejoin="round"/>
<path id="Vector_3" d="M49.6045 27.2882V50.0479H10.3964V27.2882L49.6045 27.2882Z" stroke="#2C2C2C" stroke-width="2" stroke-miterlimit="10" stroke-linecap="round" stroke-linejoin="round"/>
<path id="Vector_4" d="M14.7584 58.2609H54.9046C56.7583 58.2609 58.261 56.7581 58.261 54.9045V54.5905C58.261 53.9726 57.76 53.4716 57.1422 53.4716H2.85809C2.24022 53.4716 1.73926 53.9726 1.73926 54.5905V54.9045C1.73926 56.7582 3.24203 58.2609 5.09565 58.2609H11.3644M7.18604 13.5045H9.30168M31.1822 13.5045H33.2978M12.8687 13.5045H27.6152M20.9505 17.528H23.0662M7.18604 17.528H17.3835M32.8995 32.369L27.1008 44.9671M24.457 41.4389L21.6861 38.6681L24.457 35.8971M35.5432 35.8971L38.3142 38.6681L35.5432 41.4389" stroke="#2C2C2C" stroke-width="2" stroke-miterlimit="10" stroke-linecap="round" stroke-linejoin="round"/>
</g>
</g>
<defs>
<clipPath id="clip0_1147_14584">
<rect width="60" height="60" fill="white"/>
</clipPath>
</defs>
</svg>
