<svg width="2134" height="856" viewBox="0 0 2134 856" fill="none" xmlns="http://www.w3.org/2000/svg">
<path d="M1060.67 2.66664C1057.07 4.13331 1036.93 10.6666 1016 17.3333C995.067 24 964.533 33.8666 948 39.3333C931.467 44.6666 902.667 54 884 60C865.333 66 828.133 78 801.333 86.6666C774.533 95.3333 737.333 107.333 718.667 113.467C682.667 125.067 642.533 138 593.333 154C576.8 159.333 547.2 168.933 527.333 175.333C507.6 181.733 470 193.733 444 202.267C418 210.667 382.933 222 366 227.467C349.2 232.933 329.067 239.467 321.333 242C313.6 244.4 290.4 252 269.6 258.667C245.067 266.533 232 271.467 232.267 272.4C232.667 273.333 236.133 283.867 240 296C243.867 308.133 247.6 318.533 248.133 319.2C248.667 319.733 252 319.333 255.6 318.267C274 312.4 322.267 296.933 323.733 296.4C324.933 295.867 325.333 330.933 325.333 469.2V642.667H352H378.667V583.333V524H399.333H420V583.333V642.667H446.667H473.333V506V369.333H446.667H420V423.333V477.333H399.333H378.667V378.133V278.933L382.267 277.6C384.4 276.8 403.067 270.667 424 264C444.933 257.333 474.667 247.733 490 242.8C505.467 237.733 534.267 228.4 554 222C573.867 215.733 609.467 204.133 633.067 196.533C687.467 178.8 768.267 152.8 781.333 148.667C786.8 146.933 809.067 139.733 830.667 132.667C852.267 125.6 875.467 118.133 882 116.133C888.667 114 922.267 103.2 956.667 92C991.2 80.8 1023.87 70.2666 1029.33 68.5333C1034.8 66.6666 1046.13 63.0666 1054.4 60.4L1069.33 55.4666L1084.4 60.4C1104.4 66.9333 1152.53 82.5333 1196.67 96.8C1261.87 117.733 1288.13 126.267 1336 141.867C1394.13 160.667 1462.53 182.8 1481.33 188.8C1489.07 191.2 1517.6 200.4 1544.67 209.2C1571.87 218 1615.6 232.133 1642 240.533C1668.4 249.067 1709.6 262.4 1733.73 270.267L1777.33 284.533V463.6V642.667H1804H1830.67V473.067C1830.67 356.4 1831.07 303.2 1832 302.933C1832.8 302.667 1845.6 306.4 1860.4 311.2C1875.33 316 1888.13 320 1888.93 320C1889.73 320 1893.87 309.6 1898 296.933C1902.27 284.4 1906 273.333 1906.27 272.533C1906.67 271.467 1893.6 266.667 1871.07 259.333C1803.73 237.6 1779.33 229.6 1741.33 217.467C1720.4 210.667 1690.8 201.067 1675.33 196C1660 191.067 1632 182 1613.33 176C1594.67 170 1557.47 158 1530.67 149.333C1503.87 140.667 1465.87 128.267 1446 122C1426.27 115.6 1404.93 108.667 1398.67 106.533C1392.4 104.533 1371.2 97.6 1351.33 91.2C1331.6 84.9333 1302.8 75.6 1287.33 70.6666C1272 65.6 1246.4 57.3333 1230.67 52.2666C1150.8 26.5333 1123.6 17.7333 1097.6 9.19997C1082 4.13331 1068.8 -2.84314e-05 1068.27 0.133305C1067.73 0.133305 1064.4 1.3333 1060.67 2.66664Z" fill="#63C6E9"/>
<path d="M57.4666 367.333C31.6 372.933 13.7333 389.067 7.73329 411.867C3.06663 429.867 5.46663 457.6 13.0666 472.667C21.2 488.933 30.8 499.733 58 523.067C77.7333 540 83.2 545.333 89.2 554C94.6666 562 97.3333 569.867 97.3333 578.4C97.3333 590.8 91.6 597.467 78.9333 599.467C63.7333 601.867 53.8666 590.267 51.2 566.8L50.4 559.067L43.4666 560.133C39.7333 560.667 28.6666 562.133 18.8 563.467C6.26663 565.2 0.799959 566.4 0.266625 567.733C-0.133375 568.8 0.533292 574.8 1.59996 581.2C6.93329 611.467 24 633.867 48 642.133C75.2 651.6 110 644.533 128.8 625.733C149.6 605.067 154.133 569.333 140 539.067C132.8 523.467 122.133 511.067 98.1333 490.4C62.5333 459.6 55.3333 450.267 55.3333 434.667C55.4666 420.267 62.2666 412 74.1333 412C84.5333 412 92.1333 419.867 94.6666 433.333C95.4666 437.2 96.2666 440.667 96.6666 441.067C97.4666 441.867 144.533 437.2 145.733 436.133C146.267 435.6 145.867 430.533 144.8 425.067C138.933 394.533 121.6 374.133 95.3333 367.2C86.9333 364.933 68.5333 365.067 57.4666 367.333Z" fill="#63C6E9"/>
<path d="M214.133 367.467C193.733 372.4 177.867 384.4 169.467 401.2C162 416 162 416.4 162 506C162 596.133 162 596.4 169.733 611.067C181.067 632.8 201.333 644.667 229.467 646.267C266.667 648.4 294.933 629.6 303.6 597.2C305.2 590.8 305.867 582.8 305.867 564.667L306 540.667H280H254L253.333 564.933C252.667 586.8 252.4 589.467 249.867 592.933C246.133 598 241.867 600 234.667 600C226.267 600 219.867 596.4 216.667 590C214.133 584.8 214 582 214 506C214 419.733 213.867 420.533 222 415.2C227.067 411.867 237.333 411.2 242.4 413.867C250.267 417.867 252.533 424.8 253.333 446L254 464.667H280H306L305.867 446.667C305.6 424 304 415.333 297.333 401.867C285.733 378.133 263.067 365.2 233.867 365.467C227.333 365.467 218.4 366.4 214.133 367.467Z" fill="#63C6E9"/>
<path d="M542 367.333C517.067 372.933 500.267 387.867 492.533 411.467L488.667 423.333V506C488.667 582.533 488.8 589.2 491.067 596.667C498.533 620.533 511.2 634.133 533.067 641.733C554.4 649.067 580.133 647.733 599.733 638.4C610.933 633.067 623.067 621.067 628.133 610.133C636 593.333 636.133 590.4 635.733 500.8C635.333 421.867 635.2 419.067 632.4 412C622.8 386.533 607.067 372.667 581.467 367.2C570.533 364.933 552.533 364.933 542 367.333ZM575.6 415.467C582.4 420.533 582.533 421.467 582.533 506C582.533 590.4 582.4 591.467 575.733 596.4C566.667 603.2 547.733 599.467 543.867 590.267C542.4 586.8 542 570.267 542 505.333C542 415.6 541.733 418.933 550.933 414.133C557.067 411.067 570.667 411.733 575.6 415.467Z" fill="#63C6E9"/>
<path d="M709.333 366.267C680.667 371.067 659.2 390.667 653.467 417.2C651.333 427.067 651.333 584.8 653.467 594.8C658.133 617.067 673.467 633.867 696 641.867C706.267 645.467 708.933 645.867 724 646C741.467 646 753.2 643.467 765.6 637.2C773.867 632.933 785.733 620.267 790.4 610.667C798.267 594.267 798.667 589.467 798.667 506C798.667 443.333 798.267 428.8 796.667 420.267C789.6 385.333 762.933 365.067 724.667 365.6C718.133 365.6 711.2 366 709.333 366.267ZM736 414.4C745.6 419.067 745.333 416.533 745.333 506C745.333 579.467 745.2 586.4 742.933 590.667C737.067 602.533 714.267 603.2 707.2 591.6C704.8 587.467 704.667 584.267 704.667 506C704.667 415.6 704.4 418.8 713.6 414.267C719.467 411.333 730.133 411.467 736 414.4Z" fill="#63C6E9"/>
<path d="M1252.67 367.333C1227.47 372.8 1211.2 387.333 1202.8 411.733L1199.33 422V506V590L1203.07 600.933C1210 621.467 1222.8 634.4 1243.73 641.867C1254.4 645.6 1256.67 645.867 1272.67 645.867C1287.87 645.867 1291.33 645.333 1300.93 642.133C1319.87 636 1334.27 622.4 1341.2 604.267C1346.13 591.333 1346.93 576.667 1346.4 497.333C1345.87 430.933 1345.6 421.067 1343.6 414.133C1336.53 390 1318.67 373.333 1293.2 367.333C1282.93 364.933 1263.6 364.933 1252.67 367.333ZM1283.47 414C1286.8 415.333 1288.8 417.467 1290.67 421.6C1293.2 427.067 1293.33 430.933 1293.33 505.6C1293.33 591.333 1293.33 591.733 1285.6 596.933C1280.53 600.267 1264.8 600.267 1259.73 596.933C1252 591.733 1252 591.333 1252 504.933C1252 430.933 1252.13 425.733 1254.4 421.333C1255.73 418.8 1258.93 415.6 1261.47 414.4C1266.93 411.467 1277.07 411.333 1283.47 414Z" fill="#63C6E9"/>
<path d="M812 506V642.667H874H936V619.333V596H900H864V482.667V369.333H838H812V506Z" fill="#63C6E9"/>
<path d="M1058.67 506V642.667H1084.67H1110.67V583.333V524H1141.33H1172V500.667V477.333H1141.33H1110.67V446.667V416H1151.33H1192V392.667V369.333H1125.33H1058.67V506Z" fill="#63C6E9"/>
<path d="M1361.33 506V642.667H1388H1414.67V588V533.333H1424C1431.2 533.333 1433.33 533.733 1433.33 535.2C1433.33 536.267 1436 546.267 1439.33 557.6C1442.67 568.8 1447.47 584.933 1450 593.333C1452.53 601.733 1456.8 616.267 1459.6 625.6L1464.67 642.667H1491.6H1518.53L1516 634.933C1510.53 618.667 1482.4 531.067 1481.07 526.533C1479.73 521.6 1479.73 521.6 1489.6 511.867C1498.13 503.333 1500.13 500.533 1503.6 491.333C1509.07 477.467 1511.2 460.8 1510.13 442.533C1508.27 410.533 1497.2 389.467 1476.4 378.267C1462.8 371.067 1449.47 369.333 1403.07 369.333H1361.33V506ZM1439.47 414.8C1453.47 418.4 1458 428.667 1457.07 455.2C1456.67 467.733 1456.13 471.067 1453.33 476.533C1448.8 485.6 1443.73 488 1427.33 488.933L1414.67 489.733V451.467V413.333H1424.13C1429.2 413.333 1436.13 414 1439.47 414.8Z" fill="#63C6E9"/>
<path d="M1632 506V642.667H1694.67H1757.33V619.333V596H1721.33H1685.33V482.667V369.333H1658.67H1632V506Z" fill="#63C6E9"/>
<path d="M1848 506V642.667H1874H1900L1900.27 583.6L1900.67 524.667L1931.07 524.267L1961.33 524V500.933V477.867L1957.73 477.733C1955.6 477.733 1941.87 477.6 1927.07 477.467L1900 477.333V446.667V416H1941.33H1982.67V392.667V369.333H1915.33H1848V506Z" fill="#63C6E9"/>
<path d="M1998.67 506V642.667H2066H2133.33V619.333V596H2092.67H2052V560V524H2081.33H2110.67V500.667V477.333H2081.33H2052V446.667V416H2090H2128V392.667V369.333H2063.33H1998.67V506Z" fill="#63C6E9"/>
<path d="M680.667 694.933C670.4 698.533 666.4 705.867 665.6 722.933L664.933 736H658.133H651.333L651.467 745.6C651.467 752.933 652 755.333 653.467 755.467C654.533 755.6 657.6 755.733 660.4 755.867L665.333 756V804.667V853.333H678H690.667V804.667V756H697.333H704V746V736H697.333H690.667V726.133C690.667 714.933 691.6 713.467 700 712.4L705.333 711.6V702.533V693.333L695.067 693.467C689.333 693.467 682.933 694.133 680.667 694.933Z" fill="#63C6E9"/>
<path d="M1059.2 696.533C1058.8 697.6 1058.53 699.2 1058.8 700.133C1058.93 701.2 1058.93 711.867 1058.8 723.867L1058.67 745.867L1055.07 742.267C1042.27 730.133 1022.53 730.8 1014 743.733C1008.67 751.733 1007.73 761.2 1008.27 799.867C1008.67 834 1008.8 835.6 1011.87 841.733C1016.13 850.533 1022.4 854.933 1031.33 855.733C1040.53 856.533 1047.2 854.133 1054.27 847.6L1060 842.267V847.867V853.333H1072H1084V774V694.667H1072C1062.93 694.667 1059.73 695.067 1059.2 696.533ZM1053.33 756C1056.67 757.733 1058.67 759.733 1058.93 761.6C1059.2 763.333 1059.2 779.6 1058.93 797.733L1058.53 830.8L1052.93 833.333C1045.47 836.8 1042.27 836.667 1037.73 832.8L1034 829.6V794.933V760.267L1037.2 756.8C1041.2 752.533 1046.13 752.4 1053.33 756Z" fill="#63C6E9"/>
<path d="M1266.67 706V717.467L1279.07 717.067L1291.33 716.667V706V695.333L1279.07 694.933L1266.67 694.533V706Z" fill="#63C6E9"/>
<path d="M1208 720V736H1201.33H1194.53L1194.93 745.6L1195.33 755.333L1201.6 755.733L1207.87 756.133L1208.27 797.733C1208.67 838.533 1208.67 839.467 1211.73 844.267C1216.27 851.6 1222.67 854.933 1233.33 855.733C1238.4 856 1244 856 1245.87 855.467C1249.2 854.667 1249.33 854.267 1249.33 844V833.333H1243.6C1232.4 833.333 1232.67 834.4 1232.67 793.067V756.667L1241.07 756.267L1249.33 755.867V746V736.133L1241.07 735.733L1232.67 735.333L1232.27 719.6L1231.87 704H1220H1208V720Z" fill="#63C6E9"/>
<path d="M746.667 734.533C739.733 736.667 732.133 741.467 729.333 745.467C722.667 754.667 721.333 763.2 721.333 794.667C721.333 834.4 724.133 843.2 738.8 851.333C753.467 859.333 774.8 857.067 785.867 846.267C795.467 837.067 796.667 831.067 796.667 793.333C796.667 763.867 796.4 761.6 793.6 754.4C789.733 744.933 782.533 738.133 773.2 735.467C765.867 733.2 752.4 732.8 746.667 734.533ZM765.467 754.667C771.333 757.867 772 762 772 794.933C772 823.333 771.733 826.4 769.333 830.267C764.4 838.533 752.267 837.2 747.733 828C744.267 821.2 744.133 767.867 747.467 760.8C750.8 754.133 758.933 751.2 765.467 754.667Z" fill="#63C6E9"/>
<path d="M954.533 735.2C949.333 737.067 942.8 741.333 940 744.533C937.6 747.467 936 745.867 936 740.533V736H924.667H913.333V794.667V853.333H925.333H937.333V807.467V761.467L942 758C948.4 753.067 956.133 752.133 959.867 755.867C962.667 758.667 962.667 759.6 962.667 806V853.333H974.667H986.667V801.6C986.667 750.667 986.667 749.867 983.733 744C978.8 734.267 967.067 730.667 954.533 735.2Z" fill="#63C6E9"/>
<path d="M1130 735.2C1122.53 737.6 1117.2 740.533 1113.87 744.267C1109.47 748.933 1105.33 758 1104.4 764.667L1103.6 770.667H1115.73H1127.73L1128.67 765.067C1130.53 754.133 1142 749.467 1150.13 756.4C1153.2 759.067 1153.87 760.933 1154.4 767.6L1154.93 775.467L1144.67 779.867C1115.73 792 1102.4 807.467 1102.4 828.8C1102.4 836.933 1102.93 839.6 1105.87 844.533C1113.33 857.333 1130.13 859.6 1147.2 850.267L1155.87 845.467L1156.67 849.467L1157.6 853.333H1168.4H1179.33L1178.93 805.067C1178.53 751.2 1178.27 748.667 1169.87 741.467C1161.6 734.133 1142.8 731.2 1130 735.2ZM1154.67 809.867C1154.67 822.933 1154.27 825.467 1152 828.267C1146.13 835.733 1134.93 837.733 1129.07 832.4C1124.13 828 1127.33 814 1134.93 807.2C1139.2 803.333 1152 794.667 1153.47 794.667C1154.13 794.667 1154.67 801.467 1154.67 809.867Z" fill="#63C6E9"/>
<path d="M1334.93 735.733C1326.93 738.667 1320.93 743.733 1317.33 750.667C1312.67 759.867 1311.73 768.8 1312.27 799.333C1312.67 826.8 1312.93 829.067 1315.87 835.733C1322.13 849.733 1335.73 856.933 1353.87 855.733C1365.33 854.933 1372.53 851.6 1379.2 843.733C1386.67 835.067 1387.33 831.2 1387.33 794.667C1387.33 759.333 1386.67 754.667 1380.4 746.267C1372 735.2 1350.53 730.267 1334.93 735.733ZM1358.67 757.067C1363.73 762.133 1364.27 767.067 1363.73 799.467C1363.33 822.4 1363.07 826.667 1360.93 829.733C1356 837.333 1344.93 837.467 1339.47 830.267C1336.93 826.8 1336.67 824.4 1336.27 799.6C1336 784.8 1336.13 770 1336.67 766.8C1338.53 754.4 1350.53 749.067 1358.67 757.067Z" fill="#63C6E9"/>
<path d="M1451.87 734.533C1447.07 736.133 1442.67 738.533 1437.07 742.933L1432 746.933V741.467V736H1420.67H1409.33V794.667V853.333H1421.33H1433.33V806.933V760.667L1437.73 757.733C1443.07 754.133 1448.27 752.8 1452.67 753.867C1458.27 755.333 1458.8 760.8 1458.4 809.067L1458 853.333H1470.4H1482.8L1482.4 800.933C1482 752.8 1481.73 748.267 1479.47 743.6C1475.2 735.067 1463.2 731.2 1451.87 734.533Z" fill="#63C6E9"/>
<path d="M817.6 788.267C818 838.267 818.133 840.933 820.8 845.333C828.8 859.067 846.267 859.6 862.8 846.533L868 842.4V847.867V853.333H880H892V794.667V736H879.333H866.667V782.533V829.067L861.733 832C854.8 836 850 836.667 846 834.133L842.667 832V784V736H829.867H817.2L817.6 788.267Z" fill="#63C6E9"/>
<path d="M1266.67 794.667V853.333H1279.33H1292V794.667V736H1279.33H1266.67V794.667Z" fill="#63C6E9"/>
</svg>
