<svg width="528" height="494" viewBox="0 0 528 494" fill="none" xmlns="http://www.w3.org/2000/svg">
<g clip-path="url(#clip0_756_53003)">
<g clip-path="url(#clip1_756_53003)">
<g style="mix-blend-mode:luminosity">
<path style="mix-blend-mode:overlay" opacity="0.5" d="M530 180.044L-6.0459 176.806L176.301 457.254C176.301 457.254 176.274 457.321 176.274 457.361C176.274 463.007 214.484 467.57 261.621 467.57C308.759 467.57 346.968 462.994 346.968 457.361L530.013 180.044H530Z" fill="url(#paint0_linear_756_53003)"/>
<path style="mix-blend-mode:overlay" opacity="0.5" d="M426.435 187.069L97.5195 183.898L209.409 458.297C209.409 458.297 209.395 458.364 209.395 458.404C209.395 463.917 314.129 463.917 314.129 458.404L426.448 187.082L426.435 187.069Z" fill="url(#paint1_linear_756_53003)"/>
<path d="M387.081 467.075C387.081 467.82 386.434 468.707 384.769 469.68C383.146 470.629 380.718 471.562 377.546 472.459C371.21 474.251 362.017 475.87 350.629 477.233C327.86 479.956 296.391 481.642 261.621 481.642C226.852 481.642 195.383 479.956 172.614 477.233C161.226 475.87 152.033 474.251 145.696 472.459C142.524 471.562 140.097 470.629 138.473 469.68C136.809 468.707 136.162 467.82 136.162 467.075C136.162 466.33 136.809 465.443 138.473 464.47C140.097 463.521 142.524 462.589 145.696 461.692C152.033 459.9 161.226 458.28 172.614 456.918C195.383 454.194 226.852 452.508 261.621 452.508C296.391 452.508 327.86 454.194 350.629 456.918C362.017 458.28 371.21 459.9 377.546 461.692C380.718 462.589 383.146 463.521 384.769 464.47C386.434 465.443 387.081 466.33 387.081 467.075Z" stroke="white"/>
<path d="M136.162 475.947V469.205C136.632 469.686 137.248 470.136 137.969 470.557C139.701 471.57 142.223 472.53 145.425 473.435C151.837 475.248 161.091 476.875 172.498 478.239C195.318 480.969 226.829 482.655 261.621 482.655C296.421 482.655 327.931 480.969 350.75 478.239C362.156 476.875 371.408 475.248 377.819 473.435C381.021 472.529 383.543 471.57 385.274 470.557C385.995 470.136 386.611 469.686 387.081 469.206V475.947C387.081 476.692 386.434 477.579 384.77 478.552C383.146 479.501 380.719 480.434 377.547 481.331C371.211 483.123 362.019 484.743 350.631 486.105C327.863 488.828 296.394 490.513 261.621 490.513C226.849 490.513 195.38 488.828 172.612 486.105C161.224 484.743 152.032 483.123 145.696 481.331C142.524 480.434 140.097 479.501 138.473 478.552C136.809 477.579 136.162 476.692 136.162 475.947Z" stroke="white"/>
<path d="M176.774 463.355V459.164C177.059 459.408 177.391 459.635 177.756 459.848C178.947 460.544 180.671 461.199 182.845 461.814C187.201 463.045 193.48 464.149 201.212 465.074C216.682 466.926 238.039 468.07 261.621 468.07C285.203 468.07 306.561 466.929 322.031 465.079C329.762 464.155 336.041 463.052 340.397 461.819C342.572 461.204 344.296 460.549 345.487 459.852C345.851 459.639 346.184 459.411 346.468 459.167V463.355C346.468 463.764 346.106 464.323 344.982 464.98C343.899 465.612 342.27 466.24 340.125 466.846C335.844 468.057 329.625 469.153 321.912 470.076C306.492 471.921 285.177 473.065 261.621 473.065C238.066 473.065 216.75 471.925 201.331 470.081C193.618 469.159 187.399 468.063 183.117 466.852C180.973 466.245 179.344 465.617 178.261 464.984C177.138 464.326 176.774 463.766 176.774 463.355Z" stroke="white"/>
<path d="M397.167 114.036C410.002 115.348 422.823 116.9 435.551 119.135C441.901 120.259 448.238 121.543 454.481 123.256C457.595 124.126 460.683 125.102 463.691 126.333C465.181 126.962 466.671 127.645 468.067 128.501C469.45 129.371 470.847 130.348 471.733 131.86C472.176 132.596 472.431 133.519 472.283 134.415C472.149 135.299 471.706 136.101 471.169 136.757C470.068 138.068 468.658 138.978 467.249 139.781C464.389 141.373 461.328 142.497 458.24 143.501C452.064 145.481 445.741 146.9 439.404 148.157C426.716 150.62 413.908 152.359 401.073 153.804C375.404 156.668 349.613 158.367 323.822 159.504C298.018 160.628 272.201 161.123 246.37 161.11C220.552 161.003 194.721 160.374 168.931 159.103C143.14 157.805 117.363 155.945 91.7196 152.747C78.9116 151.115 66.1169 149.201 53.5102 146.257C50.3686 145.508 47.2405 144.678 44.1391 143.702C41.0512 142.725 37.9902 141.614 35.0903 140.102C33.6537 139.34 32.2306 138.456 31.0491 137.252C30.445 136.663 29.9482 135.927 29.6529 135.098C29.3575 134.268 29.3709 133.278 29.7334 132.462C30.3913 130.789 31.8144 129.746 33.1435 128.809C34.513 127.886 35.9898 127.19 37.48 126.534C43.4813 124.005 49.7913 122.466 56.088 121.061C62.398 119.697 68.7752 118.599 75.1524 117.623C87.9202 115.709 100.755 114.291 113.617 113.127C100.782 114.411 87.9605 115.963 75.2195 117.997C68.8558 119.041 62.5054 120.192 56.2222 121.623C49.9525 123.082 43.6827 124.688 37.8022 127.23C36.3523 127.899 34.9023 128.581 33.6 129.465C32.3246 130.348 31.0223 131.378 30.4987 132.743C29.8945 134.108 30.5792 135.606 31.6667 136.663C32.7408 137.761 34.1102 138.604 35.5065 139.34C38.3258 140.811 41.36 141.895 44.4211 142.845C47.4821 143.795 50.5969 144.612 53.7385 145.348C66.2915 148.238 79.0727 150.098 91.8673 151.69C117.47 154.781 143.234 156.561 169.011 157.765C194.788 158.942 220.592 159.478 246.397 159.504C272.201 159.611 298.005 159.197 323.782 158.166C349.559 157.123 375.323 155.504 400.979 152.734C413.801 151.329 426.596 149.643 439.256 147.221C445.579 145.99 451.876 144.598 457.998 142.658C461.046 141.668 464.08 140.571 466.859 139.032C468.229 138.256 469.571 137.373 470.565 136.208C471.545 135.058 471.934 133.479 471.075 132.194C470.336 130.896 469.021 129.906 467.705 129.076C466.362 128.247 464.912 127.551 463.449 126.922C460.495 125.678 457.434 124.674 454.346 123.778C448.157 122.011 441.834 120.673 435.497 119.482C422.81 117.127 410.015 115.441 397.18 114.01L397.167 114.036Z" fill="url(#paint2_linear_756_53003)" stroke="#FAFAFA"/>
<path d="M361.199 59.3225C372.007 60.3394 382.801 61.557 393.528 63.3233C398.885 64.2198 404.229 65.2368 409.491 66.6016C412.123 67.2974 414.741 68.0735 417.292 69.0637C418.567 69.5721 419.829 70.1074 421.024 70.8032C422.205 71.499 423.414 72.2751 424.246 73.4927C424.676 74.0815 424.917 74.8843 424.85 75.647C424.77 76.4231 424.394 77.1189 423.937 77.6809C422.984 78.7915 421.789 79.5408 420.594 80.2099C418.164 81.5212 415.573 82.4311 412.969 83.2473C407.759 84.853 402.429 86.0037 397.086 87.0207C386.386 89.0144 375.605 90.3926 364.797 91.5568C343.182 93.8315 321.473 95.1294 299.764 95.9457C278.054 96.7485 256.318 97.0161 234.595 96.8154C212.873 96.5344 191.15 95.7717 169.454 94.3534C158.606 93.6442 147.785 92.761 136.977 91.6103C126.17 90.4462 115.376 89.0679 104.689 87.0742C99.3454 86.0573 94.0154 84.9065 88.7928 83.3008C86.1882 82.4846 83.5971 81.5613 81.1536 80.25C79.9453 79.581 78.737 78.8183 77.7838 77.6943C77.3139 77.1323 76.938 76.4231 76.8574 75.6203C76.7769 75.2188 76.9245 74.8308 76.9648 74.4427C77.1259 74.1082 77.2467 73.7068 77.475 73.4258C78.3342 72.2082 79.5157 71.3785 80.724 70.6961C81.9323 70.0003 83.1809 69.4383 84.4563 68.9432C87.0072 67.9397 89.6252 67.1502 92.2566 66.4544C97.5329 65.0762 102.863 64.0057 108.233 63.1092C129.701 59.6436 151.397 57.9978 173.066 56.7667C151.41 58.252 129.741 60.1654 108.367 63.8719C103.024 64.8086 97.7074 65.879 92.4849 67.2706C89.8803 67.9798 87.2891 68.7693 84.792 69.7595C83.5434 70.2546 82.3216 70.8166 81.1805 71.4722C80.0259 72.1145 78.9518 72.9173 78.2537 73.9209C77.4884 74.9245 77.7032 76.1555 78.5222 77.1055C79.3277 78.0556 80.4689 78.7781 81.6235 79.407C83.973 80.6648 86.5239 81.5479 89.1016 82.3508C94.257 83.9297 99.5736 85.0403 104.89 86.0305C115.55 87.9707 126.331 89.3088 137.112 90.4194C147.906 91.5166 158.727 92.3596 169.562 93.0153C191.231 94.34 212.926 95.009 234.636 95.2097C256.345 95.4907 278.054 95.3034 299.75 94.5942C321.446 93.8583 343.128 92.654 364.717 90.4729C375.511 89.3623 386.278 88.0242 396.952 86.084C402.282 85.0939 407.585 83.9699 412.754 82.4043C415.332 81.6015 417.882 80.705 420.245 79.4605C421.4 78.8316 422.541 78.0957 423.36 77.1323C424.206 76.1822 424.38 74.8977 423.642 73.8674C422.957 72.8237 421.83 72.061 420.702 71.3785C419.561 70.6961 418.325 70.1609 417.077 69.639C414.58 68.6355 411.989 67.8326 409.384 67.1101C404.161 65.6917 398.831 64.6079 393.501 63.6445C382.815 61.7578 372.034 60.4063 361.24 59.2556L361.199 59.3225Z" fill="url(#paint3_linear_756_53003)" stroke="#FAFAFA"/>
<g style="mix-blend-mode:screen" opacity="0.67">
<path d="M65.11 148.077C65.11 148.465 64.7878 148.786 64.3984 148.786C64.0091 148.786 63.6869 148.465 63.6869 148.077C63.6869 147.689 64.0091 147.368 64.3984 147.368C64.7878 147.368 65.11 147.689 65.11 148.077Z" fill="white"/>
<path style="mix-blend-mode:overlay" d="M64.3985 159.732C70.8567 159.732 76.0922 154.514 76.0922 148.077C76.0922 141.64 70.8567 136.422 64.3985 136.422C57.9402 136.422 52.7047 141.64 52.7047 148.077C52.7047 154.514 57.9402 159.732 64.3985 159.732Z" fill="url(#paint4_radial_756_53003)"/>
<path style="mix-blend-mode:overlay" d="M64.3984 223.946C68.3283 223.946 71.514 189.979 71.514 148.077C71.514 106.176 68.3283 72.2081 64.3984 72.2081C60.4686 72.2081 57.2828 106.176 57.2828 148.077C57.2828 189.979 60.4686 223.946 64.3984 223.946Z" fill="url(#paint5_radial_756_53003)"/>
<path style="mix-blend-mode:overlay" d="M64.3984 175.682C68.3283 175.682 71.514 163.323 71.514 148.077C71.514 132.832 68.3283 120.473 64.3984 120.473C60.4686 120.473 57.2828 132.832 57.2828 148.077C57.2828 163.323 60.4686 175.682 64.3984 175.682Z" fill="url(#paint6_radial_756_53003)"/>
<path style="mix-blend-mode:overlay" d="M64.3985 155.169C106.04 155.169 139.797 151.994 139.797 148.077C139.797 144.16 106.04 140.985 64.3985 140.985C22.757 140.985 -11 144.16 -11 148.077C-11 151.994 22.757 155.169 64.3985 155.169Z" fill="url(#paint7_radial_756_53003)"/>
<path style="mix-blend-mode:overlay" d="M64.3985 184.941C106.04 184.941 139.797 168.437 139.797 148.077C139.797 127.718 106.04 111.213 64.3985 111.213C22.757 111.213 -11 127.718 -11 148.077C-11 168.437 22.757 184.941 64.3985 184.941Z" fill="url(#paint8_radial_756_53003)"/>
</g>
<g style="mix-blend-mode:hard-light" opacity="0.67">
<path d="M409.142 66.7488C409.142 67.0565 408.887 67.3108 408.578 67.3108C408.27 67.3108 408.015 67.0565 408.015 66.7488C408.015 66.441 408.27 66.1868 408.578 66.1868C408.887 66.1868 409.142 66.441 409.142 66.7488Z" fill="white"/>
<path style="mix-blend-mode:overlay" d="M417.936 66.7487C417.936 71.9003 413.747 76.0885 408.565 76.0885C403.383 76.0885 399.194 71.9137 399.194 66.7487C399.194 61.5837 403.383 57.4089 408.565 57.4089C413.747 57.4089 417.936 61.5837 417.936 66.7487Z" fill="url(#paint9_radial_756_53003)"/>
<path style="mix-blend-mode:overlay" d="M414.271 66.7488C414.271 100.294 411.72 127.498 408.578 127.498C405.437 127.498 402.886 100.308 402.886 66.7488C402.886 33.1898 405.437 6 408.578 6C411.72 6 414.271 33.1898 414.271 66.7488Z" fill="url(#paint10_radial_756_53003)"/>
<path style="mix-blend-mode:overlay" d="M414.271 66.7487C414.271 78.952 411.72 88.8538 408.578 88.8538C405.437 88.8538 402.886 78.9654 402.886 66.7487C402.886 54.5321 405.437 44.6437 408.578 44.6437C411.72 44.6437 414.271 54.5321 414.271 66.7487Z" fill="url(#paint11_radial_756_53003)"/>
<path style="mix-blend-mode:overlay" d="M408.565 72.4222C441.902 72.4222 468.927 69.8821 468.927 66.7488C468.927 63.6154 441.902 61.0753 408.565 61.0753C375.228 61.0753 348.203 63.6154 348.203 66.7488C348.203 69.8821 375.228 72.4222 408.565 72.4222Z" fill="url(#paint12_radial_756_53003)"/>
<path style="mix-blend-mode:overlay" d="M408.565 96.2667C441.902 96.2667 468.927 83.0511 468.927 66.7487C468.927 50.4464 441.902 37.2307 408.565 37.2307C375.228 37.2307 348.203 50.4464 348.203 66.7487C348.203 83.0511 375.228 96.2667 408.565 96.2667Z" fill="url(#paint13_radial_756_53003)"/>
</g>
<g opacity="0.67">
<path d="M454.011 145.294C454.404 145.294 454.722 144.976 454.722 144.585C454.722 144.193 454.404 143.876 454.011 143.876C453.618 143.876 453.299 144.193 453.299 144.585C453.299 144.976 453.618 145.294 454.011 145.294Z" fill="white"/>
<path style="mix-blend-mode:overlay" d="M454.011 156.239C460.469 156.239 465.705 151.021 465.705 144.585C465.705 138.148 460.469 132.93 454.011 132.93C447.552 132.93 442.317 138.148 442.317 144.585C442.317 151.021 447.552 156.239 454.011 156.239Z" fill="url(#paint14_radial_756_53003)"/>
<path style="mix-blend-mode:overlay" d="M454.011 220.454C457.941 220.454 461.126 186.486 461.126 144.585C461.126 102.683 457.941 68.7157 454.011 68.7157C450.081 68.7157 446.895 102.683 446.895 144.585C446.895 186.486 450.081 220.454 454.011 220.454Z" fill="url(#paint15_radial_756_53003)"/>
<path style="mix-blend-mode:overlay" d="M454.011 172.189C457.941 172.189 461.126 159.83 461.126 144.585C461.126 129.339 457.941 116.98 454.011 116.98C450.081 116.98 446.895 129.339 446.895 144.585C446.895 159.83 450.081 172.189 454.011 172.189Z" fill="url(#paint16_radial_756_53003)"/>
<path style="mix-blend-mode:overlay" d="M454.011 151.677C495.652 151.677 529.409 148.501 529.409 144.585C529.409 140.668 495.652 137.493 454.011 137.493C412.369 137.493 378.612 140.668 378.612 144.585C378.612 148.501 412.369 151.677 454.011 151.677Z" fill="url(#paint17_radial_756_53003)"/>
<path style="mix-blend-mode:overlay" d="M454.011 181.449C495.652 181.449 529.409 164.944 529.409 144.585C529.409 124.225 495.652 107.721 454.011 107.721C412.369 107.721 378.612 124.225 378.612 144.585C378.612 164.944 412.369 181.449 454.011 181.449Z" fill="url(#paint18_radial_756_53003)"/>
</g>
<path d="M403.772 163.251C403.772 163.251 403.772 163.251 403.772 163.238L399.932 132.248C399.932 132.248 399.932 132.248 399.932 132.234L387.728 100.897L375.135 81.4007L360.179 64.9022L340.994 49.7953C340.994 49.7953 340.994 49.7953 340.98 49.7953L319.177 38.2076L296.219 30.915L270.563 27.8508L245.886 29.5234C245.886 29.5234 245.886 29.5234 245.873 29.5234L211.799 38.9836L190.439 49.2735L164.957 66.6284L149.061 81.2L133.863 99.7859L125.418 113.809L116.584 135.62C116.584 135.62 116.584 135.62 116.584 135.633L111.925 159.197L111.12 176.458L112.301 192.863L115.564 209.147L117.161 216.4L115.497 225.913C115.389 226.181 109.683 241.181 109.536 241.569L100.943 264.129L98.5936 273.174C98.5936 273.174 98.5936 273.188 98.5936 273.201C98.5936 273.214 98.5936 273.228 98.5936 273.241L99.9899 276.948C99.9899 276.948 100.017 276.961 100.017 276.974C100.017 276.974 100.017 277.001 100.03 277.001L105.75 280.868C105.75 280.868 105.763 280.868 105.776 280.868L116.315 283.732L122.344 285.364L124.371 297.019L126.694 310.346L129.298 325.319L131.554 338.285C131.554 338.285 131.554 338.285 131.554 338.298L135.622 346.795C135.622 346.795 135.635 346.809 135.648 346.822C135.648 346.822 135.648 346.835 135.648 346.849L144.281 353.004C144.295 353.004 144.321 353.017 144.335 353.017L163.856 353.967L186.666 353.486L205.771 353.419L212.389 355.961L218.324 362.116L225.802 376.728L235.898 396.438C235.898 396.438 235.898 396.438 235.911 396.438C235.911 396.438 235.911 396.438 235.911 396.451C235.938 396.478 235.965 396.492 236.005 396.492C236.005 396.492 236.005 396.492 236.019 396.492L257.406 392.236L274.738 388.784L297.253 384.302L329.528 377.866L354.205 372.955L372.383 369.556C372.383 369.556 372.41 369.556 372.423 369.556V369.529C372.437 369.516 372.464 369.516 372.464 369.489C372.464 369.476 372.464 369.462 372.464 369.436C372.464 369.436 372.477 369.422 372.464 369.409L364.046 344.4L353.52 309.597L354.809 299.641L357.319 290.583L361.616 279.075L366.637 268.33L372.155 257.987L378.921 246.038L390.602 224.134L399.865 198.202C399.865 198.202 399.865 198.202 399.865 198.188L403.879 163.197L403.772 163.251ZM131.674 338.486L145.315 340.908L145.879 341.015L135.581 346.648L131.674 338.486ZM115.47 226.114L128.707 232.456L109.656 241.381C110.408 239.401 114.946 227.479 115.47 226.127V226.114ZM149.141 81.2L164.742 66.896L165.359 99.6923L154.404 87.208L149.128 81.2H149.141ZM211.678 39.1308L215.142 41.9943L239.362 62.0387L237.643 61.5838L204.227 52.806L190.694 49.2467L211.678 39.1308ZM393.622 166.021L377.364 170.758L369.443 144.986L403.342 163.197L393.636 166.021H393.622ZM212.403 355.76L211.638 343.116L226.325 350.114L225.224 350.555L212.403 355.747V355.76ZM163.829 353.579L164.809 331.943L177.134 341.978L163.815 353.633V353.566L163.829 353.579ZM121.108 132.408L131.003 125.209L133.769 138.992L116.799 135.539L121.108 132.408ZM280.337 51.4545L296.085 31.1559L305.349 54.2244L294.501 53.0201L280.337 51.4545ZM340.752 50.0763L338.819 88.3588L315.27 71.7666L334.536 55.3617L340.766 50.0629L340.752 50.0763ZM399.57 132.221L369.335 144.571L362.059 108.269L368.919 112.645L399.57 132.221ZM353.788 272.987L355.4 267.019L361.226 279.035L351.291 282.206L353.788 272.987ZM124.505 284.2L139.408 275.69L138.025 286.274L122.693 285.23L124.505 284.2ZM134.292 99.9198L165.4 100.161L166.877 117.649L137.971 101.927L134.292 99.9198ZM171.307 66.2269L192.144 64.5008L193.634 76.4766L165.48 66.722L171.307 66.2403V66.2269ZM267.448 41.4859L264.669 54.5321L240.275 62.0521L270.254 28.2924L267.448 41.4725V41.4859ZM268.28 53.8096L264.937 54.4786L270.509 28.2924L279.947 51.4813L268.28 53.8096ZM305.738 54.492L340.497 49.996L315.109 71.6194L308.531 59.6034L305.738 54.5054V54.492ZM361.803 108.243L369.08 144.491L339.866 125.25L356.111 112.658L361.817 108.243H361.803ZM351.358 213.63L345.76 212.225L372.356 191.725L364.609 216.975L351.358 213.63ZM339.571 312.554L353.157 309.851L352.5 325.52L352.419 325.44L339.584 312.567L339.571 312.554ZM339.517 358.316L323.258 361.554L329.944 355.613L336.496 349.793L338.51 355.493L339.504 358.316H339.517ZM250.142 357.567L234.555 361.996L243.604 346.086L248.934 355.453L250.142 357.567ZM135.997 265.708L117.9 273.201L115.013 258.803L135.997 265.708ZM129.164 232.617L132.117 233.38L145.839 236.939L130.506 247.644L129.674 238.357L129.164 232.617ZM137.662 167.546L139.971 165.285L147.181 184.018L136.373 181.717L125.566 179.415L137.662 167.546ZM315.404 72.1948L338.765 88.6531L334.147 107.386L330.28 100.134L325.541 91.2222L316.277 73.8406L315.391 72.1814L315.404 72.1948ZM353.762 173.554L347.989 174.223L369.188 145.026L377.122 170.825L353.762 173.554ZM343.182 331.407L341.974 332.143L339.477 312.808L352.406 325.761L343.182 331.407ZM320.506 358.878L310.974 347.812L321.191 337.884L322.681 361.394L320.506 358.878ZM284.257 71.5926L314.706 71.9272L290.554 90.7539L287.143 80.3704L284.27 71.5926H284.257ZM290.111 350.957L266.616 355.64L271.033 345.845L273.986 339.302L278.121 342.286L290.111 350.943V350.957ZM236.972 334.311L223.291 332.759L223.479 330.337L225.063 309.289L235.065 330.297L236.972 334.311ZM243.591 81.481L209.288 92.6807L239.805 62.5472L243.604 81.481H243.591ZM339.571 125.718L347.519 173.982L329.112 152.734L335.771 135.539L339.571 125.731V125.718ZM292.997 334.378L290.312 350.81L274.215 339.182L292.997 334.378ZM177.429 298.785L159.909 307.322L154.699 292.429L177.429 298.798V298.785ZM139.716 275.489L154.095 265.266L154.364 291.907L144.738 281.122L139.703 275.489H139.716ZM136.32 265.32L130.52 247.938L145.865 237.233L145.798 237.434L136.32 265.333V265.32ZM159.331 140.263L167.011 118.171L175.147 131.98L183.847 146.753L162.003 140.972L159.345 140.263H159.331ZM243.98 81.6282L283.76 71.6729L263.394 98.488L256.493 92.5068L243.98 81.6416V81.6282ZM224.795 308.821L210.067 330.645L210.953 292.483L221.022 304.365L224.795 308.807V308.821ZM160.083 307.496L177.59 298.959L177.483 299.695L175.012 316.019L168.138 312.086L160.097 307.483L160.083 307.496ZM331.18 234.076L304.154 250.721L314.129 224.803L326.185 231.373L331.166 234.089L331.18 234.076ZM303.912 251.27L313.686 269.428L295.024 268.089L301.603 255.645L303.912 251.27ZM303.845 287.652L299.844 288.067L313.874 269.816L319.902 285.993L303.845 287.652ZM187.471 322.978L177.993 298.972L197.232 307.375L187.471 322.978ZM306.53 170.811L317.284 137.707L328.803 152.72L306.53 170.811ZM303.832 320.127L280.202 318.548L294.662 303.241L307.04 320.341L303.832 320.127ZM293.158 334.017L280.216 318.803L307 320.596L293.158 334.03V334.017ZM201.031 129.357L208.724 141.895L184.384 146.739L199.192 126.374L201.018 129.344L201.031 129.357ZM313.74 224.535L284.66 228.951L277.168 230.088L267.864 196.435L306.074 219.838L313.753 224.535H313.74ZM197.339 247.777L174.932 259.807L178.503 218.032L197.339 247.777ZM237.455 130.722L263.34 98.9697L265.246 127.123L237.455 130.722ZM263.447 317.665L267.797 300.484L279.746 318.589L262.091 322.991L263.434 317.665H263.447ZM255.459 209.656L249.726 216.078L247.095 212.88L235.871 199.245L245.886 198.322L267.354 196.328L255.459 209.656ZM258.95 281.791L228.541 281.323L230.796 265.494L238.059 269.695L258.95 281.791ZM232.676 235.159L217.048 246.346L208.952 231.051L223.452 233.567L232.662 235.159H232.676ZM222.486 214.7L217.075 192.314L218.001 192.662L235.414 199.205L222.486 214.7ZM235.267 162.555L235.495 198.964L217.088 192.046L228.648 173.3L235.267 162.555ZM222.244 214.78L198.803 206.498L216.82 192.341L222.244 214.794V214.78ZM232.756 234.932L208.966 230.811L222.405 215.195L232.756 234.932ZM223.439 216.627L222.633 215.102L249.458 216.373L233.011 234.878L223.439 216.627ZM222.687 214.861L235.629 199.352L249.458 216.145L222.687 214.874V214.861ZM235.75 198.884L235.522 162.328L262.507 176.739L240.597 194.883L235.75 198.897V198.884ZM219.76 187.256L216.941 191.832L206.616 162.274H235.173L219.76 187.256ZM205.542 189.397L192.238 186.373L206.415 162.435L216.726 191.939L205.542 189.397ZM216.632 192.167L198.628 206.324L192.238 186.627L216.632 192.18V192.167ZM232.85 235.333L231.588 251.966L230.608 264.932L217.182 246.546L232.85 235.333ZM230.836 265.146L233.092 235.307L272.818 264.945L230.836 265.146ZM231.159 265.387L272.926 265.186L259.393 281.738L231.159 265.387ZM241.308 225.9L249.699 216.466L272.872 264.664L233.172 235.052L241.308 225.9ZM254.022 184.058L262.655 176.913L267.515 196.047L236.019 198.964L254.022 184.058ZM262.615 176.485L239.375 164.081L235.602 162.06L265.246 127.564L262.628 176.485H262.615ZM198.789 206.712L207.811 209.896L222.217 214.995L208.765 230.623L204.106 219.464L198.776 206.712H198.789ZM217.088 246.814L230.501 265.172L213.383 268.585L217.088 246.814ZM267.569 300.056L250.116 301.167L259.433 282.193L267.582 300.056H267.569ZM262.883 176.792L269.046 176.016L305.778 171.36L267.743 195.967L265.072 185.41L262.883 176.806V176.792ZM263.085 176.525L291.614 148.974L306.1 171.065L263.085 176.525ZM262.87 176.391L265.488 127.471L291.44 148.786L262.856 176.391H262.87ZM235.294 161.98H206.751L211.356 157.31L237.039 131.191L235.602 156.614L235.294 161.98ZM206.616 161.779L209.06 142.069L236.676 131.204L206.616 161.779ZM198.507 206.685L208.509 230.637L178.704 217.644L190.358 211.194L198.507 206.685ZM179.55 218.273L208.55 230.918L197.527 247.577L178.745 217.912L179.55 218.259V218.273ZM208.724 231.105L216.806 246.399L197.756 247.67L208.711 231.105H208.724ZM216.86 246.64L214.685 259.432L213.155 268.437L199.179 249.798L197.769 247.911L216.874 246.64H216.86ZM213.047 268.705L192.56 281.925L197.608 248.112L213.047 268.705ZM214.081 268.692L230.568 265.413L228.326 281.176L213.517 268.812L214.095 268.692H214.081ZM259.232 282.006L255.983 288.616L249.86 301.087L228.728 281.537L259.232 282.006ZM267.824 300.003L259.648 282.046L299.119 288.241L267.824 300.003ZM299.2 288L259.661 281.805L273.208 265.226L291.883 281.604L299.186 288H299.2ZM273.127 264.611L266.978 251.818L250.008 216.52L253.673 218.393L276.967 230.289L274.94 248.393L273.127 264.624V264.611ZM276.9 229.968L249.941 216.199L253.271 212.466L267.623 196.395L273.181 216.507L276.9 229.968ZM265.085 127.377L235.562 161.739L237.307 130.977L242.839 130.254L265.099 127.377H265.085ZM221.707 136.824L209.261 141.721L228.527 110.852L237.012 130.803L221.707 136.824ZM206.361 161.9L184.451 146.967L208.818 142.109L206.361 161.886V161.9ZM206.2 162.301L192.063 186.172L181.766 168.349L183.954 167.8L206.187 162.288L206.2 162.301ZM185.78 200.517L178.463 217.269L170.139 186.413L191.888 186.547L185.793 200.517H185.78ZM192.05 186.774L198.427 206.444L184.652 214.058L178.691 217.35L186.518 199.419L192.05 186.761V186.774ZM197.38 248.032L195.258 262.242L192.332 281.885L174.999 260.048L197.38 248.032ZM267.609 300.297L264.186 313.798L261.903 322.804L250.116 301.408L267.609 300.297ZM279.988 318.441L268.012 300.31L290.178 302.679L294.447 303.134L279.988 318.441ZM268.294 300.096L274.805 297.648L299.401 288.402L294.608 302.906L268.28 300.096H268.294ZM273.597 265.239L294.756 268.29L299.388 287.853L273.597 265.239ZM277.396 230.289L313.928 224.749L303.899 250.788L277.396 230.289ZM302.435 165.031L291.816 148.827L317.069 137.654L306.275 170.878L302.435 165.031ZM291.574 148.572L265.622 127.257L304.57 112.765L291.574 148.572ZM206.147 162.074L181.712 168.122L184.222 147.127L206.147 162.06V162.074ZM191.835 186.32L170.179 186.186L181.564 168.536L191.835 186.333V186.32ZM170.005 279.798L154.498 265.079L174.637 260.181L170.018 279.784L170.005 279.798ZM174.851 260.302L192.117 282.046L170.233 279.918L174.851 260.288V260.302ZM192.64 282.193L211.181 270.217L213.074 268.999L210.765 291.947L198.628 285.404L192.654 282.179L192.64 282.193ZM213.316 268.999L228.191 281.417L211.02 291.921L213.329 269.013L213.316 268.999ZM273.342 264.865L277.182 230.449L298.569 246.988L303.711 250.962L278.779 262.376L273.342 264.865ZM268.186 195.967L306.141 171.413L302.798 191.739L293.507 192.876L268.186 195.967ZM317.096 137.373L291.842 148.546L304.798 112.872L314.116 131.432L317.096 137.373ZM304.409 112.565L296.327 115.575L265.488 127.056L263.581 98.8225L268.831 100.589L304.409 112.565ZM263.071 98.9028L237.2 130.642L234.743 124.875L228.702 110.665L242.705 105.874L263.071 98.9028ZM208.939 141.748L206.509 137.801L199.393 126.213L228.178 110.932L208.939 141.761V141.748ZM175.335 206.752L178.235 217.483L160.66 212.479L169.924 186.721L175.335 206.752ZM162.996 233.594L178.261 217.992L176.167 242.519L174.717 259.539L173.858 257.626L163.01 233.58L162.996 233.594ZM174.61 259.954L172.744 260.409L154.417 264.865L162.889 233.942L164.03 236.457L174.623 259.954H174.61ZM154.632 291.988L154.364 265.32L169.884 280.039L154.632 291.974V291.988ZM177.993 298.718L192.318 282.487L197.259 307.135L187.203 302.746L177.979 298.718H177.993ZM197.5 307.081L192.56 282.46L204.777 289.044L210.671 292.215L197.554 307.028L197.514 307.081H197.5ZM228.487 281.711L249.646 301.287L225.117 308.66L227.614 288.656L228.487 281.711ZM249.981 301.769L261.715 323.058L248.343 323.339L249.981 301.769ZM273.745 339.088L258.708 344.36L261.997 323.486L273.745 339.088ZM273.892 338.874L267.193 329.976L262.131 323.259L279.759 318.87L276.121 331.287L273.892 338.874ZM294.85 302.987L298.784 291.078L299.643 288.455L322.708 308.326L294.85 302.987ZM313.686 269.695L299.643 287.96L294.997 268.357L296.515 268.464L313.673 269.695H313.686ZM299.656 258.857L294.783 268.089L273.624 265.039L303.657 251.283L299.656 258.857ZM313.874 224.348L268.025 196.275L283.586 194.375L302.798 192.02L312.746 221.096L313.861 224.348H313.874ZM303.053 191.685L306.382 171.427L321.876 184.272L319.419 185.249L303.053 191.699V191.685ZM317.311 137.292L305.013 112.805L339.329 125.276L327.394 131.779L317.297 137.279L317.311 137.292ZM228.782 110.397L243.779 81.7754L263.192 98.6218L228.782 110.397ZM183.967 147.127L183.779 148.653L181.443 168.148L167.011 162.475L153.679 157.23L183.954 147.141L183.967 147.127ZM178.167 217.738L162.929 233.299L160.634 212.733L178.167 217.738ZM170.005 280.253L177.563 298.571L154.767 292.188L170.005 280.253ZM170.246 280.199L175.549 280.708L192.117 282.313L187.874 287.117L177.792 298.517L175.388 292.67L170.233 280.186L170.246 280.199ZM187.203 322.991L175.254 316.167L177.818 299.24L187.203 322.991ZM202.602 318.254L197.568 307.362L202.616 301.662L210.564 292.683L204.039 313.624L202.602 318.241V318.254ZM211.033 292.202L228.232 281.684L227.185 290.034L224.875 308.526L218.619 301.14L211.033 292.188V292.202ZM225.251 308.861L230.528 307.268L249.74 301.501L248.088 323.232L226.137 309.423L225.251 308.861ZM276.806 329.735L279.974 318.923L292.917 334.137L274.094 338.941L276.792 329.721L276.806 329.735ZM293.413 334.124L307.269 320.676L320.99 337.456L293.413 334.124ZM307.577 320.663L327.34 323.366L321.245 337.389L307.577 320.676V320.663ZM294.957 303.241L322.829 308.58L307.322 320.315L294.971 303.241H294.957ZM331.327 234.276L332.589 256.582L304.248 250.949L331.314 234.276H331.327ZM323.285 229.486L314.371 224.629L339.423 214.78L345.156 212.519L331.394 233.902L323.285 229.486ZM303.187 191.873L320.399 185.088L322.01 184.46L324.95 202.296L318.398 199.152L303.187 191.859V191.873ZM322.748 187.403L322.265 184.46L347.035 191.578L325.205 202.336L322.748 187.417V187.403ZM342.753 176.431L347.599 174.558L347.264 191.377L322.507 184.259L342.753 176.431ZM322.144 184.138L306.678 171.32L347.183 174.451L322.144 184.138ZM339.222 173.594L306.624 171.079L328.978 152.908L347.451 174.237L339.222 173.594ZM324.534 146.726L317.445 137.48L339.396 125.504L328.951 152.479L324.534 146.712V146.726ZM304.476 112.337L263.863 98.662L290.446 91.0884L303.509 110.865L304.476 112.337ZM208.899 93.1758L228.326 110.571L199.434 125.919L206.536 101.365L208.899 93.1892V93.1758ZM199.017 126.226L184.128 146.699L178.624 137.346L167.252 118.051L187.995 123.39L199.017 126.226ZM183.685 146.94L153.531 156.989L159.264 140.477L183.685 146.926V146.94ZM153.612 157.43L179.497 167.613L181.376 168.349L169.951 186.065L158.405 165.82L153.612 157.43ZM152.404 184.794L169.776 186.413L160.486 212.225L147.557 184.339L152.404 184.794ZM162.674 233.728L154.23 264.57L146.268 236.993L147.154 236.819L162.674 233.728ZM146.094 237.314L154.068 264.905L136.494 265.561L146.094 237.3V237.314ZM187.74 323.044L197.406 307.59L202.454 318.508L201.072 318.936L187.727 323.044H187.74ZM248.008 323.473L237.214 334.258L225.265 309.155L248.008 323.473ZM248.397 323.566L261.769 323.285L258.48 344.119L257.486 342.085L248.397 323.553V323.566ZM273.704 339.342L266.374 355.56L258.735 344.587L273.704 339.329V339.342ZM293.588 334.391L309.578 336.318L321.016 337.696L310.786 347.638L304.127 342.513L293.574 334.378L293.588 334.391ZM307.604 320.422L323.057 308.74L327.353 323.125L307.604 320.435V320.422ZM322.963 308.218L310.303 297.3L299.884 288.308L319.983 286.234L322.547 305.114L322.963 308.205V308.218ZM314.196 269.976L340.792 292.322L320.171 286.006L314.196 269.976ZM313.955 269.401L304.154 251.19L332.415 256.809L313.955 269.401ZM345.156 212.265L314.156 224.455L303.08 192.113L311.122 195.967L335.637 207.702L345.156 212.265ZM305.241 112.632L334.106 107.895L339.423 125.062L305.228 112.632H305.241ZM325.138 91.423L304.771 112.391L295.548 98.4211L290.701 91.0751L307.497 91.2356L325.138 91.4096V91.423ZM263.743 98.4479L277.544 80.2768L284.029 71.7398L290.312 90.8743L263.743 98.4479ZM243.483 81.7888L228.487 110.41L209.06 93.0153L222.741 88.5461L243.483 81.7754V81.7888ZM208.617 93.2427L208.026 95.3034L199.138 126.039L181.108 121.396L167.32 117.85L171.092 115.602L208.63 93.2561L208.617 93.2427ZM153.37 157.551L169.709 186.186L147.49 184.112L151.84 164.455L153.37 157.564V157.551ZM160.405 212.961L161.64 224L162.701 233.5L146.349 236.752L149.396 231.6L160.405 212.974V212.961ZM154.082 291.974L138.24 286.354L139.622 275.783L154.082 291.988V291.974ZM175.053 316.341L187.149 323.259L164.782 331.568L160.003 307.75L175.053 316.341ZM187.794 323.299L197.165 320.408L202.454 318.776L200.226 328.892L199.192 328.423L187.78 323.285L187.794 323.299ZM202.669 318.936L209.328 330.283L209.691 330.899L200.467 328.972L202.669 318.923V318.936ZM202.75 318.589L210.698 293.058L209.825 330.645L204.227 321.104L202.75 318.575V318.589ZM224.795 309.289L223.13 331.367L223.023 332.745L210.134 330.979L224.781 309.276L224.795 309.289ZM247.994 323.847L247.685 325.333L243.51 345.524L237.321 334.512L247.994 323.847ZM243.725 345.725L248.249 323.847L258.345 344.44L250.371 345.136L243.725 345.725ZM321.5 337.456L327.582 323.459L341.558 332.331L325.85 336.345L321.5 337.456ZM339.208 312.755L341.705 332.143L329.475 324.382L327.716 323.272L337.543 314.267L339.195 312.755H339.208ZM327.595 323.058L323.312 308.714L339.06 312.567L327.608 323.058H327.595ZM320.238 286.301L341.101 292.683L323.232 308.299L320.238 286.301ZM314.223 269.548L332.562 257.037L329.313 273.388L314.223 269.548ZM331.663 233.995L345.465 212.559L356.487 237.795L331.663 234.009V233.995ZM345.384 212.104L325.42 202.537L334.174 198.228L347.264 191.779L345.72 208.491L345.384 212.091V212.104ZM334.026 107.667L305.12 112.404L325.42 91.5166L326.937 94.3667L334.012 107.654L334.026 107.667ZM290.849 90.8476L315.029 72.0074L325.245 91.1821L290.849 90.8476ZM283.545 71.499L243.846 81.4409L240.046 62.4937L283.545 71.5123V71.499ZM208.214 93.216L167.105 117.689L165.628 100.174L208.214 93.216ZM153.384 156.694L148.765 123.55L166.796 118.077L153.384 156.694ZM147.852 181.422L147.329 183.804L141.435 168.47L140.159 165.164L153.169 157.484L147.866 181.422H147.852ZM138.575 203.567L160.325 212.653L150.269 229.66L146.161 236.618L139.273 206.645L138.575 203.581V203.567ZM134.991 262.095L136.132 265.534L115.094 258.616L130.318 248.099L134.991 262.095ZM136.494 265.842L153.827 265.186L152.994 265.775L139.609 275.288L139.005 273.442L136.508 265.842H136.494ZM159.653 307.322L140.468 302.077L154.458 292.443L159.667 307.322H159.653ZM164.54 331.501L147.987 322.87L159.774 307.79L164.527 331.501H164.54ZM236.972 334.579L226.701 349.846L223.331 333.026L236.985 334.579H236.972ZM237.173 334.712L243.403 345.778L226.916 349.967L237.173 334.712ZM250.545 357.513L258.56 344.775L265.515 354.757L266.199 355.734L255.835 356.925L250.559 357.527L250.545 357.513ZM266.736 355.881L290.178 351.211L281.787 365.435L266.736 355.881ZM290.567 350.89L290.782 349.578L293.252 334.458L310.504 347.759L303.509 348.856L290.567 350.89ZM336.469 349.391L321.567 337.696L341.692 332.558L336.469 349.405V349.391ZM341.356 334.472L341.92 332.652L352.392 348.642L336.711 349.458L341.356 334.472ZM314.411 269.842L329.313 273.629L340.819 292.028L314.411 269.842ZM348.311 244.352L332.831 256.515L331.569 234.236L356.38 238.023L348.311 244.352ZM372.168 191.284L347.492 191.444L347.827 174.638L352.392 177.756L372.168 191.284ZM347.787 174.103L344.364 153.363L339.785 125.531L369.053 144.812L347.787 174.103ZM339.678 125.076L339.181 123.47L334.361 107.908L336.872 107.935L361.508 108.176L339.691 125.089L339.678 125.076ZM284.418 71.3785L305.469 54.6124L314.827 71.7131L284.418 71.3785ZM214.793 86.9136L208.818 92.8146L193.956 76.7442L239.415 62.6007L214.793 86.9136ZM180.665 87.3418L165.588 99.8261L164.97 66.8558L193.486 76.7442L180.678 87.3552L180.665 87.3418ZM169.736 96.7084L193.714 76.8647L208.563 92.9216L165.896 99.893L169.736 96.7217V96.7084ZM148.658 123.323L134.104 100.161L166.648 117.863L148.658 123.323ZM153.129 156.895L134.064 139.192L148.524 123.738L153.142 156.895H153.129ZM147.315 184.526L160.217 212.359L149.195 207.756L138.522 203.3L139.179 201.895L147.315 184.526ZM145.906 236.765L129.124 232.416L138.334 203.835L145.906 236.765ZM123.122 271.328L136.226 265.908L139.34 275.369L118.262 273.348L123.136 271.328H123.122ZM138.226 286.635L139.824 287.197L154.216 292.309L145.557 298.277L140.253 301.93L139.247 294.276L138.24 286.622L138.226 286.635ZM140.24 302.304L159.345 307.523L139.166 313.143L139.797 306.76L140.24 302.304ZM156.136 344.561L148 323.192L164.5 331.795L161.748 335.997L156.136 344.561ZM187.163 323.526L177.268 341.844L164.916 331.795L187.163 323.526ZM187.31 323.767L187.565 338.459L177.563 341.818L187.31 323.767ZM187.807 338.298L187.552 323.486L200.051 329.119L191.096 335.836L187.807 338.298ZM200.387 329.24L200.843 329.333L209.651 331.167L197.662 342.045L199.138 335.06L200.373 329.226L200.387 329.24ZM209.825 331.354L211.329 342.848L197.782 342.286L209.825 331.34V331.354ZM210.067 331.247L222.848 333L211.57 342.741L210.067 331.247ZM243.295 346.073L234.233 362.009L226.782 350.274L243.295 346.073ZM243.752 345.992L258.278 344.721L250.277 357.46L250.102 357.165L243.752 346.006V345.992ZM250.478 357.794L259.916 356.71L266.199 355.988L260.682 373.865L258.775 370.867L250.478 357.781V357.794ZM266.441 356.041L281.518 365.622L260.923 373.958L266.455 356.041H266.441ZM290.607 351.157L310.531 348.013L301.012 364.672L295.212 357.139L290.607 351.157ZM301.267 364.739L310.799 348.066L322.56 361.715L301.281 364.739H301.267ZM322.896 361.541L321.406 337.924L321.594 338.071L336.322 349.632L330.925 354.422L322.909 361.541H322.896ZM339.168 312.367L323.352 308.499L326.333 305.89L341.155 292.938L340.39 300.391L339.168 312.353V312.367ZM329.676 273.816L336.402 276.573L350.848 282.487L341.329 292.443L329.676 273.803V273.816ZM329.501 273.482L329.595 273.027L332.764 257.09L338.107 264.557L350.714 282.179L334.831 275.663L329.515 273.482H329.501ZM355.265 266.577L333.355 256.943L360.488 258.335L359.051 260.61L355.265 266.577ZM360.555 258.094L333.032 256.676L356.568 238.183L356.755 239.12L360.555 258.081V258.094ZM349.116 220.427L345.652 212.506L364.475 217.256L356.635 237.648L349.116 220.427ZM345.585 212.051L347.451 191.725L372.168 191.565L365.925 196.382L345.585 212.064V212.051ZM361.481 107.935L334.308 107.667L338.94 88.8806L350.727 98.8359L361.481 107.935ZM279.961 51.7623L283.854 71.1778L271.046 60.0316L264.978 54.7462L279.209 51.9095L279.961 51.7623ZM264.682 54.8131L283.613 71.2983L240.328 62.3331L254.64 57.9175L264.696 54.8131H264.682ZM143.14 129.13L133.943 138.965L131.178 125.183L148.269 123.644L143.127 129.13H143.14ZM134.078 139.594L153.075 157.23L140.025 164.95L138.28 157.497L134.078 139.607V139.594ZM139.69 165.205L135.152 169.66L125.27 179.361L112.06 159.411L139.69 165.191V165.205ZM147.114 184.339L138.32 203.112L125.472 179.736L147.114 184.339ZM133.192 218.928L128.895 232.256L117.188 216.507L138.105 203.674L133.192 218.942V218.928ZM128.828 232.711L130.184 247.764L117.067 243.844L109.777 241.662C110.905 241.234 114.825 239.481 128.828 232.697V232.711ZM109.562 241.863L130.037 247.978L123.767 252.314L114.825 258.495L111.335 247.47L109.562 241.877V241.863ZM139.958 301.983L124.492 297.072L137.944 286.689L139.958 301.983ZM159.452 307.75L147.732 322.75L139.233 313.383L159.466 307.75H159.452ZM146.322 340.935L147.812 323.499L155.867 344.641L154.23 343.999L146.322 340.935ZM187.525 338.74L186.344 353.205L177.483 342.125L187.525 338.753V338.74ZM194.856 333.321L200.092 329.4L199.581 331.782L197.366 342.246L187.914 338.526L194.856 333.321ZM223.023 333.147L226.392 349.98L211.664 342.955L218.874 336.72L223.009 333.147H223.023ZM250.263 357.955L260.494 374.079L242.235 376.501L242.825 375.122L250.263 357.955ZM281.975 365.515L286.217 358.33L290.366 351.291L300.757 364.792L283.384 365.462L281.975 365.515ZM322.359 361.996L297.213 383.994L301.106 365.02L322.372 361.996H322.359ZM339.651 358.263L337.839 353.138L336.644 349.739L352.137 348.936L339.651 358.249V358.263ZM352.406 348.388L349.908 344.574L341.974 332.451L352.392 326.068V333.803V348.388H352.406ZM339.383 312.38L341.209 294.61L341.37 293.005L353.01 309.664L339.383 312.38ZM350.982 282.179L333.032 257.09L355.144 266.818L352.808 275.449L350.982 282.179ZM372.437 191.244L348.002 174.531L377.055 171.132L373.417 186.975L372.437 191.244ZM342.108 91.2624L339.128 88.7468L374.746 81.655L361.777 107.881L342.122 91.2624H342.108ZM305.161 54.5455L284.109 71.3116L280.189 51.7757L282.767 52.0567L305.147 54.5321L305.161 54.5455ZM239.375 62.3866L193.916 76.5301L200.172 62.3197L204.213 53.1405L206.804 53.8229L239.375 62.3866ZM201.662 58.3323L193.755 76.2759L192.278 64.4339L190.425 49.5277L203.958 53.087L201.649 58.3323H201.662ZM139.77 164.991L112.046 159.183L133.796 139.473L139.784 164.991H139.77ZM108.918 271.167L114.718 259.071L117.564 273.268L110.381 271.515L108.918 271.154V271.167ZM117.913 273.589L139.085 275.623L129.54 281.069L122.263 285.217L119.914 278.955L117.9 273.576L117.913 273.589ZM139.971 302.411L138.897 313.196L126.881 310.413L134.642 305.676L139.971 302.425V302.411ZM147.49 322.87L129.446 325.266L139.005 313.531L147.49 322.87ZM147.611 323.098L146.107 340.761L129.446 325.506L147.611 323.098ZM153.357 343.932L155.827 344.895L144.295 352.79L146.308 341.202L153.37 343.945L153.357 343.932ZM156.243 344.855L164.514 332.224L163.534 353.686L163.05 353.098L156.243 344.855ZM186.881 349.793L187.78 338.753L193.782 341.122L197.232 342.487L186.585 353.218L186.867 349.806L186.881 349.793ZM197.715 342.567L211.262 343.129L205.569 353.245L197.715 342.567ZM218.444 362.09L226.58 350.448L234.005 362.156L218.444 362.103V362.09ZM234.408 362.344L250.035 357.901L242.02 376.38L235.106 363.628L234.408 362.33V362.344ZM260.547 374.333L257.11 392.022L242.302 376.755L260.561 374.333H260.547ZM281.572 365.876L274.47 388.597L260.923 374.239L281.572 365.876ZM282.015 365.783L300.851 365.06L296.958 384.074L293.373 379.685L282.015 365.783ZM339.785 358.49L352.432 349.057L353.856 372.687L339.785 358.49ZM352.661 348.642V342.273V326.309L363.576 344.534L352.674 348.642H352.661ZM341.611 292.509L351.023 282.661L356.796 290.609L341.611 292.509ZM355.493 266.658L360.676 258.482L366.127 268.277L357.319 266.939L355.493 266.658ZM360.783 258.121L356.849 238.491L369.416 255.057L371.631 257.974L360.783 258.134V258.121ZM364.636 217.497L378.411 245.918L356.782 237.916L364.636 217.497ZM364.784 217.095L365.831 213.67L372.557 191.752L390.091 224.013L364.784 217.082V217.095ZM377.297 171.266L399.261 198.095L372.665 191.364L377.283 171.279L377.297 171.266ZM361.535 84.0368L339.195 88.4926L360.004 65.1832L374.719 81.4141L361.522 84.0368H361.535ZM192.023 64.3269L165.265 66.5481L190.197 49.5679L192.036 64.3269H192.023ZM133.796 100.241L148.349 123.403L131.151 124.955L132.467 112.645L133.796 100.241ZM125.257 179.897L133.004 194L138.132 203.34L131.822 204.932L115.591 209.04L121.511 191.177L125.257 179.883V179.897ZM135.662 204.223L137.582 203.741L125.284 211.288L117.108 216.306L115.564 209.321L135.662 204.223ZM117.094 216.801L128.546 232.229L115.483 225.98L117.081 216.801H117.094ZM109.374 242.091L114.61 258.643L101.01 264.062L109.374 242.091ZM101.037 264.316L114.516 258.95L108.69 271.073L106.193 268.866L101.037 264.316ZM98.8756 273.362L108.139 271.515L99.9093 276.841L98.6205 273.415L98.8756 273.362ZM108.824 271.421L117.416 273.522L105.79 280.614L106.971 277.028L108.824 271.408V271.421ZM156.069 345.056L163.372 353.9L144.496 352.977L156.069 345.056ZM234.233 362.544L237.401 368.392L241.832 376.568L228.138 376.701L225.909 376.728L234.072 362.785L234.22 362.544H234.233ZM241.872 376.822L235.777 396.251L225.909 376.982L241.872 376.822ZM281.827 365.943L295.253 382.375L296.823 384.288L274.711 388.691L281.827 365.943ZM322.735 362.063L328.521 376.273L329.166 377.852L297.481 384.168L322.735 362.063ZM322.95 361.942L339.383 358.664L329.327 377.638L324.574 365.957L322.936 361.942H322.95ZM352.701 349.164L367.939 365.301L371.94 369.543L354.124 372.874L352.701 349.164ZM352.674 325.841L353.318 310.507L363.347 343.678L352.661 325.841H352.674ZM354.446 299.601L341.705 292.764L356.876 290.864L354.446 299.601ZM366.368 268.183L360.904 258.375L371.685 258.228L366.368 268.197V268.183ZM378.666 245.877L364.865 217.39L390.158 224.321L378.666 245.877ZM403.463 163.104L369.483 144.852L385.5 138.309L399.677 132.515L403.463 163.104ZM399.53 132.034L362.126 108.149L378.948 103.506L387.5 101.151L399.53 132.034ZM362.059 107.908L374.719 82.324L375.001 81.762L387.379 100.937L362.059 107.921V107.908ZM348.324 77.9217L339.02 88.3454L339.92 70.5891L340.953 50.1432L359.843 65.0227L348.324 77.9217ZM305.792 54.3046L319.07 38.4618L340.443 49.8221L305.792 54.3046ZM305.537 54.2244L296.3 31.196L318.828 38.3547L305.537 54.2244ZM295.857 31.1024L282.914 47.7748L280.108 51.401L270.617 28.0917L295.857 31.1024ZM240.046 61.9718L240.785 57.8639L245.846 29.7241L270.133 28.0783L240.046 61.9585V61.9718ZM245.591 29.7777L239.764 62.1458L234.837 58.0647L211.933 39.1175L245.591 29.7643V29.7777ZM148.967 81.3874L155.492 88.8271L165.212 99.9064L134.024 99.6655L148.967 81.3874ZM133.594 100.335L131.93 115.856L130.99 124.594L125.472 113.822L133.594 100.335ZM125.351 114.117L130.923 124.982L116.772 135.272L125.351 114.117ZM116.597 135.767L133.661 139.233L121.847 149.937L112.033 158.835L116.597 135.767ZM111.952 159.558L125.029 179.308L113.429 176.819L111.16 176.337L111.939 159.558H111.952ZM111.173 176.592L120.974 178.692L125.056 179.562L112.315 192.555L111.173 176.592ZM112.355 192.889L125.029 179.977L118.92 198.402L115.523 208.652L112.368 192.889H112.355ZM100.943 264.41L102.621 265.895L108.542 271.114L98.6876 273.081L100.943 264.41ZM108.582 271.475V271.502L105.562 280.614L100.138 276.948L108.582 271.488V271.475ZM106.448 280.453L117.631 273.616L116.074 283.518L105.937 280.761L106.448 280.453ZM117.846 273.857L122.075 285.15L116.315 283.584L117.846 273.857ZM122.424 285.458L137.797 286.501L124.398 296.831L122.424 285.458ZM124.465 297.233L139.891 302.13L126.72 310.172L124.465 297.219V297.233ZM126.774 310.547L138.844 313.343L131.124 322.817L129.298 325.065L126.774 310.547ZM129.406 325.694L142.845 338.004L145.865 340.761L142.697 340.199L131.58 338.218L129.406 325.694ZM138.669 345.257L146.094 341.189L145.382 345.297L144.08 352.763L135.769 346.835L138.669 345.243V345.257ZM164.03 353.82L167.105 351.131L177.322 342.179L186.25 353.352L164.03 353.82ZM194.668 345.404L197.5 342.554L205.395 353.272L186.8 353.339L194.668 345.404ZM205.811 353.339L211.423 343.37L212.175 355.787L205.824 353.339H205.811ZM226.298 350.421L218.256 361.956L212.524 356.015L226.298 350.421ZM218.471 362.263L234.072 362.317L227.279 373.905L225.761 376.487L218.471 362.25V362.263ZM242.154 376.835L254.143 389.199L257.003 392.143L236.032 396.318L242.154 376.835ZM259.621 380.689L260.843 374.387L274.335 388.691L257.406 392.062L259.621 380.689ZM329.609 377.678L339.705 358.611L353.815 372.848L329.609 377.665V377.678ZM352.835 348.802L363.75 344.695L371.953 369.048L352.835 348.802ZM353.211 309.369L341.759 292.964L354.446 299.775L353.211 309.369ZM357.064 290.382L355.05 287.612L351.318 282.474L361.199 279.329L357.064 290.395V290.382ZM361.401 278.834L355.587 266.845L366.247 268.464L361.401 278.834ZM371.94 257.786L357.051 238.183L376.679 245.449L378.545 246.145L371.94 257.8V257.786ZM390.373 223.853L384.063 212.238L372.826 191.565L381.982 193.88L399.489 198.309L390.373 223.853ZM399.57 197.921L398.872 197.064L377.512 170.985L403.53 163.412L399.57 197.934V197.921Z" fill="url(#paint19_linear_756_53003)" stroke="#FAFAFA" stroke-width="0.6"/>
</g>
</g>
</g>
<defs>
<linearGradient id="paint0_linear_756_53003" x1="248.706" y1="512.864" x2="257.454" y2="290.915" gradientUnits="userSpaceOnUse">
<stop stop-color="#37DAC7"/>
<stop offset="0.05" stop-color="#54DFCF" stop-opacity="0.85"/>
<stop offset="0.13" stop-color="#7CE6DA" stop-opacity="0.65"/>
<stop offset="0.21" stop-color="#9FEDE4" stop-opacity="0.48"/>
<stop offset="0.3" stop-color="#BDF2EC" stop-opacity="0.33"/>
<stop offset="0.4" stop-color="#D5F7F3" stop-opacity="0.21"/>
<stop offset="0.5" stop-color="#E7FAF8" stop-opacity="0.12"/>
<stop offset="0.62" stop-color="#F4FDFC" stop-opacity="0.05"/>
<stop offset="0.76" stop-color="#FCFEFE" stop-opacity="0.01"/>
<stop offset="1" stop-color="white" stop-opacity="0"/>
</linearGradient>
<linearGradient id="paint1_linear_756_53003" x1="249.283" y1="505.384" x2="257.565" y2="295.438" gradientUnits="userSpaceOnUse">
<stop stop-color="#37DAC7"/>
<stop offset="0.05" stop-color="#54DFCF" stop-opacity="0.85"/>
<stop offset="0.13" stop-color="#7CE6DA" stop-opacity="0.65"/>
<stop offset="0.21" stop-color="#9FEDE4" stop-opacity="0.48"/>
<stop offset="0.3" stop-color="#BDF2EC" stop-opacity="0.33"/>
<stop offset="0.4" stop-color="#D5F7F3" stop-opacity="0.21"/>
<stop offset="0.5" stop-color="#E7FAF8" stop-opacity="0.12"/>
<stop offset="0.62" stop-color="#F4FDFC" stop-opacity="0.05"/>
<stop offset="0.76" stop-color="#FCFEFE" stop-opacity="0.01"/>
<stop offset="1" stop-color="white" stop-opacity="0"/>
</linearGradient>
<linearGradient id="paint2_linear_756_53003" x1="29.4515" y1="137.118" x2="472.323" y2="137.118" gradientUnits="userSpaceOnUse">
<stop stop-color="#9FEBF5" stop-opacity="0.35"/>
<stop offset="1" stop-color="#62D2E3"/>
</linearGradient>
<linearGradient id="paint3_linear_756_53003" x1="76.844" y1="76.8379" x2="424.877" y2="76.8379" gradientUnits="userSpaceOnUse">
<stop stop-color="#9FEBF5" stop-opacity="0.35"/>
<stop offset="1" stop-color="#62D2E3"/>
</linearGradient>
<radialGradient id="paint4_radial_756_53003" cx="0" cy="0" r="1" gradientUnits="userSpaceOnUse" gradientTransform="translate(64.3985 148.077) scale(11.6937 11.6547)">
<stop stop-color="#19DFD1"/>
<stop offset="0.05" stop-color="#2FE2D5" stop-opacity="0.9"/>
<stop offset="0.19" stop-color="#65E9E0" stop-opacity="0.67"/>
<stop offset="0.33" stop-color="#94F0E9" stop-opacity="0.46"/>
<stop offset="0.46" stop-color="#BBF5F1" stop-opacity="0.3"/>
<stop offset="0.6" stop-color="#D8F9F7" stop-opacity="0.17"/>
<stop offset="0.74" stop-color="#EEFCFB" stop-opacity="0.07"/>
<stop offset="0.87" stop-color="#FAFEFE" stop-opacity="0.02"/>
<stop offset="1" stop-color="white" stop-opacity="0"/>
</radialGradient>
<radialGradient id="paint5_radial_756_53003" cx="0" cy="0" r="1" gradientUnits="userSpaceOnUse" gradientTransform="translate(63.6219 148.833) scale(7.13318 75.8719)">
<stop stop-color="#19DFD1"/>
<stop offset="0.01" stop-color="#26E0D3" stop-opacity="0.94"/>
<stop offset="0.07" stop-color="#53E7DC" stop-opacity="0.74"/>
<stop offset="0.13" stop-color="#7CECE4" stop-opacity="0.57"/>
<stop offset="0.19" stop-color="#A0F1EC" stop-opacity="0.41"/>
<stop offset="0.26" stop-color="#BDF5F1" stop-opacity="0.28"/>
<stop offset="0.34" stop-color="#D5F9F6" stop-opacity="0.18"/>
<stop offset="0.43" stop-color="#E8FBFA" stop-opacity="0.1"/>
<stop offset="0.54" stop-color="#F5FDFD" stop-opacity="0.04"/>
<stop offset="0.68" stop-color="#FCFEFE" stop-opacity="0"/>
<stop offset="1" stop-color="white" stop-opacity="0"/>
</radialGradient>
<radialGradient id="paint6_radial_756_53003" cx="0" cy="0" r="1" gradientUnits="userSpaceOnUse" gradientTransform="translate(64.2135 146.99) rotate(90) scale(27.5781 7.11806)">
<stop stop-color="#19DF96"/>
<stop offset="0.05" stop-color="#2FE281" stop-opacity="0.9"/>
<stop offset="0.19" stop-color="#60EA7F" stop-opacity="0.67"/>
<stop offset="0.33" stop-color="#94F0B9" stop-opacity="0.46"/>
<stop offset="0.46" stop-color="#BBF5D6" stop-opacity="0.3"/>
<stop offset="0.6" stop-color="#D8F9E5" stop-opacity="0.17"/>
<stop offset="0.74" stop-color="#EEFCFB" stop-opacity="0.07"/>
<stop offset="0.87" stop-color="#FAFEFE" stop-opacity="0.02"/>
<stop offset="1" stop-color="white" stop-opacity="0"/>
</radialGradient>
<radialGradient id="paint7_radial_756_53003" cx="0" cy="0" r="1" gradientUnits="userSpaceOnUse" gradientTransform="translate(62.439 147.798) rotate(90) scale(7.08503 75.4246)">
<stop stop-color="#19DF96"/>
<stop offset="0.05" stop-color="#2FE281" stop-opacity="0.9"/>
<stop offset="0.19" stop-color="#60EA7F" stop-opacity="0.67"/>
<stop offset="0.33" stop-color="#94F0B9" stop-opacity="0.46"/>
<stop offset="0.46" stop-color="#BBF5D6" stop-opacity="0.3"/>
<stop offset="0.6" stop-color="#D8F9E5" stop-opacity="0.17"/>
<stop offset="0.74" stop-color="#EEFCFB" stop-opacity="0.07"/>
<stop offset="0.87" stop-color="#FAFEFE" stop-opacity="0.02"/>
<stop offset="1" stop-color="white" stop-opacity="0"/>
</radialGradient>
<radialGradient id="paint8_radial_756_53003" cx="0" cy="0" r="1" gradientUnits="userSpaceOnUse" gradientTransform="translate(62.439 146.626) rotate(90) scale(36.8287 75.4246)">
<stop stop-color="#19DF96"/>
<stop offset="0.05" stop-color="#2FE281" stop-opacity="0.9"/>
<stop offset="0.19" stop-color="#60EA7F" stop-opacity="0.67"/>
<stop offset="0.33" stop-color="#94F0B9" stop-opacity="0.46"/>
<stop offset="0.46" stop-color="#BBF5D6" stop-opacity="0.3"/>
<stop offset="0.6" stop-color="#D8F9E5" stop-opacity="0.17"/>
<stop offset="0.74" stop-color="#EEFCFB" stop-opacity="0.07"/>
<stop offset="0.87" stop-color="#FAFEFE" stop-opacity="0.02"/>
<stop offset="1" stop-color="white" stop-opacity="0"/>
</radialGradient>
<radialGradient id="paint9_radial_756_53003" cx="0" cy="0" r="1" gradientUnits="userSpaceOnUse" gradientTransform="translate(408.565 66.7487) scale(9.3711 9.33979)">
<stop stop-color="#19DFD1"/>
<stop offset="0.05" stop-color="#2FE2D5" stop-opacity="0.9"/>
<stop offset="0.19" stop-color="#65E9E0" stop-opacity="0.67"/>
<stop offset="0.33" stop-color="#94F0E9" stop-opacity="0.46"/>
<stop offset="0.46" stop-color="#BBF5F1" stop-opacity="0.3"/>
<stop offset="0.6" stop-color="#D8F9F7" stop-opacity="0.17"/>
<stop offset="0.74" stop-color="#EEFCFB" stop-opacity="0.07"/>
<stop offset="0.87" stop-color="#FAFEFE" stop-opacity="0.02"/>
<stop offset="1" stop-color="white" stop-opacity="0"/>
</radialGradient>
<radialGradient id="paint10_radial_756_53003" cx="0" cy="0" r="1" gradientUnits="userSpaceOnUse" gradientTransform="translate(408.807 67.4729) scale(5.71638 60.802)">
<stop stop-color="#19DFD1"/>
<stop offset="0.01" stop-color="#26E0D3" stop-opacity="0.94"/>
<stop offset="0.07" stop-color="#53E7DC" stop-opacity="0.74"/>
<stop offset="0.13" stop-color="#7CECE4" stop-opacity="0.57"/>
<stop offset="0.19" stop-color="#A0F1EC" stop-opacity="0.41"/>
<stop offset="0.26" stop-color="#BDF5F1" stop-opacity="0.28"/>
<stop offset="0.34" stop-color="#D5F9F6" stop-opacity="0.18"/>
<stop offset="0.43" stop-color="#E8FBFA" stop-opacity="0.1"/>
<stop offset="0.54" stop-color="#F5FDFD" stop-opacity="0.04"/>
<stop offset="0.68" stop-color="#FCFEFE" stop-opacity="0"/>
<stop offset="1" stop-color="white" stop-opacity="0"/>
</radialGradient>
<radialGradient id="paint11_radial_756_53003" cx="0" cy="0" r="1" gradientUnits="userSpaceOnUse" gradientTransform="translate(408.807 67.286) scale(5.71638 22.1353)">
<stop stop-color="#19DFD1"/>
<stop offset="0.05" stop-color="#2FE2D5" stop-opacity="0.9"/>
<stop offset="0.19" stop-color="#65E9E0" stop-opacity="0.67"/>
<stop offset="0.33" stop-color="#94F0E9" stop-opacity="0.46"/>
<stop offset="0.46" stop-color="#BBF5F1" stop-opacity="0.3"/>
<stop offset="0.6" stop-color="#D8F9F7" stop-opacity="0.17"/>
<stop offset="0.74" stop-color="#EEFCFB" stop-opacity="0.07"/>
<stop offset="0.87" stop-color="#FAFEFE" stop-opacity="0.02"/>
<stop offset="1" stop-color="white" stop-opacity="0"/>
</radialGradient>
<radialGradient id="paint12_radial_756_53003" cx="0" cy="0" r="1" gradientUnits="userSpaceOnUse" gradientTransform="translate(406.916 67.6403) rotate(90) scale(5.69727 60.4436)">
<stop stop-color="#19DFD1"/>
<stop offset="0.05" stop-color="#2FE2D5" stop-opacity="0.9"/>
<stop offset="0.19" stop-color="#65E9E0" stop-opacity="0.67"/>
<stop offset="0.33" stop-color="#94F0E9" stop-opacity="0.46"/>
<stop offset="0.46" stop-color="#BBF5F1" stop-opacity="0.3"/>
<stop offset="0.6" stop-color="#D8F9F7" stop-opacity="0.17"/>
<stop offset="0.74" stop-color="#EEFCFB" stop-opacity="0.07"/>
<stop offset="0.87" stop-color="#FAFEFE" stop-opacity="0.02"/>
<stop offset="1" stop-color="white" stop-opacity="0"/>
</radialGradient>
<radialGradient id="paint13_radial_756_53003" cx="0" cy="0" r="1" gradientUnits="userSpaceOnUse" gradientTransform="translate(406.916 65.3148) rotate(90) scale(29.5137 60.4436)">
<stop stop-color="#19DFD1"/>
<stop offset="0.05" stop-color="#2FE2D5" stop-opacity="0.9"/>
<stop offset="0.19" stop-color="#65E9E0" stop-opacity="0.67"/>
<stop offset="0.33" stop-color="#94F0E9" stop-opacity="0.46"/>
<stop offset="0.46" stop-color="#BBF5F1" stop-opacity="0.3"/>
<stop offset="0.6" stop-color="#D8F9F7" stop-opacity="0.17"/>
<stop offset="0.74" stop-color="#EEFCFB" stop-opacity="0.07"/>
<stop offset="0.87" stop-color="#FAFEFE" stop-opacity="0.02"/>
<stop offset="1" stop-color="white" stop-opacity="0"/>
</radialGradient>
<radialGradient id="paint14_radial_756_53003" cx="0" cy="0" r="1" gradientUnits="userSpaceOnUse" gradientTransform="translate(454.011 144.585) scale(11.6938 11.6547)">
<stop stop-color="#19DFD1"/>
<stop offset="0.05" stop-color="#2FE2D5" stop-opacity="0.9"/>
<stop offset="0.19" stop-color="#65E9E0" stop-opacity="0.67"/>
<stop offset="0.33" stop-color="#94F0E9" stop-opacity="0.46"/>
<stop offset="0.46" stop-color="#BBF5F1" stop-opacity="0.3"/>
<stop offset="0.6" stop-color="#D8F9F7" stop-opacity="0.17"/>
<stop offset="0.74" stop-color="#EEFCFB" stop-opacity="0.07"/>
<stop offset="0.87" stop-color="#FAFEFE" stop-opacity="0.02"/>
<stop offset="1" stop-color="white" stop-opacity="0"/>
</radialGradient>
<radialGradient id="paint15_radial_756_53003" cx="0" cy="0" r="1" gradientUnits="userSpaceOnUse" gradientTransform="translate(454.391 145.348) scale(7.13319 75.8719)">
<stop stop-color="#19DFD1"/>
<stop offset="0.01" stop-color="#26E0D3" stop-opacity="0.94"/>
<stop offset="0.07" stop-color="#53E7DC" stop-opacity="0.74"/>
<stop offset="0.13" stop-color="#7CECE4" stop-opacity="0.57"/>
<stop offset="0.19" stop-color="#A0F1EC" stop-opacity="0.41"/>
<stop offset="0.26" stop-color="#BDF5F1" stop-opacity="0.28"/>
<stop offset="0.34" stop-color="#D5F9F6" stop-opacity="0.18"/>
<stop offset="0.43" stop-color="#E8FBFA" stop-opacity="0.1"/>
<stop offset="0.54" stop-color="#F5FDFD" stop-opacity="0.04"/>
<stop offset="0.68" stop-color="#FCFEFE" stop-opacity="0"/>
<stop offset="1" stop-color="white" stop-opacity="0"/>
</radialGradient>
<radialGradient id="paint16_radial_756_53003" cx="0" cy="0" r="1" gradientUnits="userSpaceOnUse" gradientTransform="translate(454.391 145.204) scale(7.13319 27.6216)">
<stop stop-color="#19DFD1"/>
<stop offset="0.05" stop-color="#2FE2D5" stop-opacity="0.9"/>
<stop offset="0.19" stop-color="#65E9E0" stop-opacity="0.67"/>
<stop offset="0.33" stop-color="#94F0E9" stop-opacity="0.46"/>
<stop offset="0.46" stop-color="#BBF5F1" stop-opacity="0.3"/>
<stop offset="0.6" stop-color="#D8F9F7" stop-opacity="0.17"/>
<stop offset="0.74" stop-color="#EEFCFB" stop-opacity="0.07"/>
<stop offset="0.87" stop-color="#FAFEFE" stop-opacity="0.02"/>
<stop offset="1" stop-color="white" stop-opacity="0"/>
</radialGradient>
<radialGradient id="paint17_radial_756_53003" cx="0" cy="0" r="1" gradientUnits="userSpaceOnUse" gradientTransform="translate(452.378 145.712) rotate(90) scale(7.10935 75.4246)">
<stop stop-color="#19DFD1"/>
<stop offset="0.05" stop-color="#2FE2D5" stop-opacity="0.9"/>
<stop offset="0.19" stop-color="#65E9E0" stop-opacity="0.67"/>
<stop offset="0.33" stop-color="#94F0E9" stop-opacity="0.46"/>
<stop offset="0.46" stop-color="#BBF5F1" stop-opacity="0.3"/>
<stop offset="0.6" stop-color="#D8F9F7" stop-opacity="0.17"/>
<stop offset="0.74" stop-color="#EEFCFB" stop-opacity="0.07"/>
<stop offset="0.87" stop-color="#FAFEFE" stop-opacity="0.02"/>
<stop offset="1" stop-color="white" stop-opacity="0"/>
</radialGradient>
<radialGradient id="paint18_radial_756_53003" cx="0" cy="0" r="1" gradientUnits="userSpaceOnUse" gradientTransform="translate(452.378 143.116) rotate(90) scale(36.8287 75.4246)">
<stop stop-color="#19DFD1"/>
<stop offset="0.05" stop-color="#2FE2D5" stop-opacity="0.9"/>
<stop offset="0.19" stop-color="#65E9E0" stop-opacity="0.67"/>
<stop offset="0.33" stop-color="#94F0E9" stop-opacity="0.46"/>
<stop offset="0.46" stop-color="#BBF5F1" stop-opacity="0.3"/>
<stop offset="0.6" stop-color="#D8F9F7" stop-opacity="0.17"/>
<stop offset="0.74" stop-color="#EEFCFB" stop-opacity="0.07"/>
<stop offset="0.87" stop-color="#FAFEFE" stop-opacity="0.02"/>
<stop offset="1" stop-color="white" stop-opacity="0"/>
</radialGradient>
<linearGradient id="paint19_linear_756_53003" x1="309.605" y1="570.683" x2="221.558" y2="31.1957" gradientUnits="userSpaceOnUse">
<stop stop-color="#C0F9FF" stop-opacity="0"/>
<stop offset="0.27" stop-color="#A0EBF5" stop-opacity="0.34"/>
<stop offset="0.53" stop-color="#85E0ED" stop-opacity="0.62"/>
<stop offset="0.74" stop-color="#72D8E7" stop-opacity="0.83"/>
<stop offset="0.91" stop-color="#66D3E4" stop-opacity="0.95"/>
<stop offset="1" stop-color="#62D2E3"/>
</linearGradient>
<clipPath id="clip0_756_53003">
<rect width="528" height="494" fill="white"/>
</clipPath>
<clipPath id="clip1_756_53003">
<rect width="541" height="485" fill="white" transform="translate(-11 6)"/>
</clipPath>
</defs>
</svg>
