<svg width="12" height="14" viewBox="0 0 12 14" fill="none" xmlns="http://www.w3.org/2000/svg">
<g id="Frame 23">
<path id="Vector" d="M1 8.49137C1 8.58317 1.03362 8.67122 1.09348 8.73613C1.15333 8.80105 1.23451 8.83752 1.31916 8.83752H9.91036L6.62569 12.4006C6.59433 12.4323 6.56918 12.4705 6.55174 12.513C6.53429 12.5554 6.52491 12.6013 6.52416 12.6477C6.5234 12.6942 6.53129 12.7404 6.54734 12.7835C6.56339 12.8266 6.58728 12.8657 6.61759 12.8986C6.64789 12.9315 6.684 12.9574 6.72374 12.9748C6.76348 12.9922 6.80604 13.0008 6.8489 12.9999C6.89175 12.9991 6.93401 12.989 6.97316 12.97C7.01231 12.9511 7.04755 12.9238 7.07677 12.8898L10.9067 8.73598C10.9664 8.67108 11 8.5831 11 8.49137C11 8.39963 10.9664 8.31165 10.9067 8.24675L7.07677 4.0929C7.01626 4.03176 6.93624 3.99847 6.85356 4.00005C6.77088 4.00164 6.69199 4.03796 6.63351 4.10139C6.57504 4.16481 6.54154 4.25037 6.54008 4.34005C6.53862 4.42972 6.56931 4.51652 6.62569 4.58213L9.91036 8.14521H1.31916C1.23451 8.14521 1.15333 8.18168 1.09348 8.2466C1.03362 8.31151 1 8.39956 1 8.49137Z" fill="#30AB89" stroke="#30AB89" stroke-width="0.8"/>
</g>
</svg>
