<svg width="1013" height="1013" viewBox="0 0 1013 1013" fill="none" xmlns="http://www.w3.org/2000/svg">
<g style="mix-blend-mode:luminosity" opacity="0.04" clip-path="url(#clip0_772_125194)">
<path d="M610.996 330.245L562.698 462.392L447.609 534.749C443.599 537.262 438.332 535.048 437.315 530.44C431.689 505.303 421.096 434.083 464.187 380.518C464.187 380.518 514.819 325.637 610.936 330.186L610.996 330.245Z" fill="#30AB89"/>
<path d="M388.179 693.527L436.477 561.381L551.566 489.024C555.576 486.511 560.843 488.725 561.86 493.333C567.486 518.47 578.079 589.69 534.988 643.255C534.988 643.255 484.356 698.136 388.239 693.587L388.179 693.527Z" fill="#187F5F"/>
<path d="M277.04 649.778C250.587 608.422 235.265 559.287 235.265 506.56C235.265 359.571 354.424 240.412 501.413 240.412C551.626 240.412 598.547 254.297 638.646 278.476L807.06 106.531L722.853 130.59C722.853 130.59 680.002 92.8254 606.208 82.5314V0H408.767V72.1178C408.767 72.1178 298.885 103.299 285.119 139.208L213.002 78.9405L82.4117 212.882L127.059 278.416C127.059 278.416 72.1178 370.823 82.4117 401.765H0V602.737H75.5291C75.5291 602.737 103 700.53 120.176 710.824L109.882 813.823L277.1 649.658H277.04V649.778Z" fill="#30AB89"/>
<path d="M361.726 733.087L199.177 896.295L274.706 879.118C319.353 910 415.47 934.06 415.47 934.06V1013.06H602.078V930.648C646.726 937.531 730.574 882.59 730.574 882.59L806.941 930.648L927.117 796.707L871.757 728C912.574 707.412 930.529 607.824 930.529 607.824L1012.94 594.059V412.059L927.117 398.294C923.706 315.882 882.47 281.828 882.47 281.828L906.529 192.354L730.574 371.242C753.975 410.862 767.441 457.065 767.441 506.38C767.441 653.369 648.282 772.528 501.293 772.528C450.063 772.528 402.243 758.044 361.606 732.968L361.726 733.087Z" fill="#187F5F"/>
<path d="M578.019 307.802C578.019 307.802 376.748 313.907 421.096 529.422" stroke="#30AB89" stroke-miterlimit="10"/>
<path d="M592.084 321.867C599.851 321.867 606.148 315.57 606.148 307.802C606.148 300.035 599.851 293.738 592.084 293.738C584.316 293.738 578.019 300.035 578.019 307.802C578.019 315.57 584.316 321.867 592.084 321.867Z" stroke="#30AB89" stroke-miterlimit="10"/>
<path d="M424.268 717.108C424.268 717.108 625.479 709.567 579.635 494.351" stroke="#30AB89" stroke-miterlimit="10"/>
<path d="M410.203 731.232C417.971 731.232 424.268 724.935 424.268 717.167C424.268 709.4 417.971 703.103 410.203 703.103C402.436 703.103 396.139 709.4 396.139 717.167C396.139 724.935 402.436 731.232 410.203 731.232Z" stroke="#30AB89" stroke-miterlimit="10"/>
</g>
<defs>
<clipPath id="clip0_772_125194">
<rect width="1013" height="1013" fill="white"/>
</clipPath>
</defs>
</svg>
