<svg width="70" height="70" viewBox="0 0 70 70" fill="none" xmlns="http://www.w3.org/2000/svg">
<g id="automated 1">
<g id="Group">
<path id="Vector" d="M57.7837 39.3079C58.3228 37.9708 58.742 36.5885 59.0365 35.1773H62.2416C63.2731 35.1773 64.1095 34.341 64.1095 33.3095V26.9603C64.1095 25.9287 63.2731 25.0924 62.2416 25.0924H59.0365C58.402 22.0525 57.205 19.2196 55.5599 16.7061L57.8283 14.4376C58.5577 13.7082 58.5577 12.5255 57.8283 11.7961L53.3387 7.30652C52.6094 6.57713 51.4266 6.57713 50.6972 7.30652L48.4288 9.57496C45.9152 7.92982 43.0824 6.73285 40.0424 6.09834V2.89324C40.0424 1.8617 39.2061 1.02539 38.1746 1.02539H31.8254C30.7938 1.02539 29.9575 1.8617 29.9575 2.89324V6.09834C26.9176 6.73285 24.0848 7.92982 21.5712 9.57496L19.3027 7.30652C18.5734 6.57713 17.3906 6.57713 16.6612 7.30652L12.1716 11.7961C11.4422 12.5255 11.4422 13.7082 12.1716 14.4376L14.4401 16.7061C12.7949 19.2196 11.598 22.0525 10.9635 25.0924H7.75835C6.72681 25.0924 5.8905 25.9287 5.8905 26.9603V33.3095C5.8905 34.341 6.72681 35.1773 7.75835 35.1773H10.9635C11.598 38.2173 12.7949 41.0501 14.4401 43.5637L12.1716 45.8321C11.4422 46.5615 11.4422 47.7442 12.1716 48.4736L16.6612 52.9632C17.3906 53.6926 18.5734 53.6926 19.3027 52.9632L21.5712 50.6948C24.0848 52.3399 26.9176 53.5369 29.9575 54.1714V57.3765C29.9575 58.408 30.7938 59.2443 31.8254 59.2443H38.1746C39.2061 59.2443 40.0424 58.408 40.0424 57.3765V54.1714C43.0824 53.5369 45.9152 52.3399 48.4288 50.6948L50.6972 52.9632C51.4266 53.6926 52.6094 53.6926 53.3387 52.9632L57.8283 48.4736C58.5577 47.7442 58.5577 46.5615 57.8283 45.8321L55.5599 43.5637M38.0288 68.9746V59.2445" stroke="#FAFAFA" stroke-miterlimit="10" stroke-linecap="round" stroke-linejoin="round"/>
<path id="Vector_2" d="M45.2398 68.9746C46.3613 68.9746 47.2705 68.0654 47.2705 66.9439C47.2705 65.8224 46.3613 64.9132 45.2398 64.9132C44.1183 64.9132 43.2091 65.8224 43.2091 66.9439C43.2091 68.0654 44.1183 68.9746 45.2398 68.9746Z" stroke="#FAFAFA" stroke-miterlimit="10" stroke-linecap="round" stroke-linejoin="round"/>
<path id="Vector_3" d="M45.2398 64.9134V52.4587" stroke="#FAFAFA" stroke-miterlimit="10" stroke-linecap="round" stroke-linejoin="round"/>
<path id="Vector_4" d="M31.9172 68.9746C33.0387 68.9746 33.9479 68.0654 33.9479 66.9439C33.9479 65.8224 33.0387 64.9132 31.9172 64.9132C30.7957 64.9132 29.8865 65.8224 29.8865 66.9439C29.8865 68.0654 30.7957 68.9746 31.9172 68.9746Z" stroke="#FAFAFA" stroke-miterlimit="10" stroke-linecap="round" stroke-linejoin="round"/>
<path id="Vector_5" d="M31.9172 64.9134V59.2445" stroke="#FAFAFA" stroke-miterlimit="10" stroke-linecap="round" stroke-linejoin="round"/>
<path id="Vector_6" d="M17.2078 68.9746C18.3293 68.9746 19.2385 68.0654 19.2385 66.9439C19.2385 65.8224 18.3293 64.9132 17.2078 64.9132C16.0863 64.9132 15.1771 65.8224 15.1771 66.9439C15.1771 68.0654 16.0863 68.9746 17.2078 68.9746Z" stroke="#FAFAFA" stroke-miterlimit="10" stroke-linecap="round" stroke-linejoin="round"/>
<path id="Vector_7" d="M24.9798 52.5581V66.9439H19.2385" stroke="#FAFAFA" stroke-miterlimit="10" stroke-linecap="round" stroke-linejoin="round"/>
<path id="Vector_8" d="M9.7379 62.7241C10.8594 62.7241 11.7686 61.8149 11.7686 60.6934C11.7686 59.5719 10.8594 58.6627 9.7379 58.6627C8.61638 58.6627 7.70721 59.5719 7.70721 60.6934C7.70721 61.8149 8.61638 62.7241 9.7379 62.7241Z" stroke="#FAFAFA" stroke-miterlimit="10" stroke-linecap="round" stroke-linejoin="round"/>
<path id="Vector_9" d="M18.5925 53.4093V60.6934H11.7684" stroke="#FAFAFA" stroke-miterlimit="10" stroke-linecap="round" stroke-linejoin="round"/>
<path id="Vector_10" d="M60.2621 62.7241C61.3836 62.7241 62.2928 61.8149 62.2928 60.6934C62.2928 59.5719 61.3836 58.6627 60.2621 58.6627C59.1406 58.6627 58.2314 59.5719 58.2314 60.6934C58.2314 61.8149 59.1406 62.7241 60.2621 62.7241Z" stroke="#FAFAFA" stroke-miterlimit="10" stroke-linecap="round" stroke-linejoin="round"/>
<path id="Vector_11" d="M51.4075 53.4093V60.6934H58.2315M24.9834 27.7C26.0774 23.1834 30.147 19.829 35 19.829C40.6917 19.829 45.3058 24.4431 45.3058 30.1348C45.3058 35.8266 40.6917 40.4407 35 40.4407C30.134 40.4407 26.0557 37.0684 24.9747 32.5333" stroke="#FAFAFA" stroke-miterlimit="10" stroke-linecap="round" stroke-linejoin="round"/>
<path id="Vector_12" d="M31.2447 47.7887C23.0808 46.0607 16.9551 38.8128 16.9551 30.1349C16.9551 21.4569 23.0808 14.2091 31.2447 12.4811M38.7552 12.4811C46.9191 14.2091 53.0448 21.4569 53.0448 30.1349C53.0448 38.8128 46.9191 46.0608 38.7552 47.7887" stroke="#FAFAFA" stroke-miterlimit="10" stroke-linecap="round" stroke-linejoin="round"/>
<path id="Vector_13" d="M30.2445 30.4233L33.0219 33.5017L39.7555 26.7681M40.5015 15.8913L38.7552 12.481L42.1654 10.7349M27.5986 48.9653L31.2447 47.7887L30.0681 44.1425" stroke="#FAFAFA" stroke-miterlimit="10" stroke-linecap="round" stroke-linejoin="round"/>
</g>
</g>
</svg>
