<svg width="71" height="70" viewBox="0 0 71 70" fill="none" xmlns="http://www.w3.org/2000/svg">
<g id="cloud-service 1">
<g id="Group">
<path id="Vector" d="M26.2714 57.1846H68.1072C68.8623 57.1846 69.4744 57.7968 69.4744 58.5518V58.9619C69.4744 61.2271 67.638 63.0635 65.3729 63.0635H5.62694C3.36179 63.0635 1.52539 61.2271 1.52539 58.9619V58.5518C1.52539 57.7968 2.13748 57.1846 2.89257 57.1846H21.4863" stroke="#FAFAFA" stroke-miterlimit="10" stroke-linecap="round" stroke-linejoin="round"/>
<path id="Vector_2" d="M4.05469 29.7042V18.9035C4.05469 18.1485 4.66678 17.5363 5.42187 17.5363H17.1796" stroke="#FAFAFA" stroke-miterlimit="10" stroke-linecap="round" stroke-linejoin="round"/>
<path id="Vector_3" d="M4.05469 57.0479V34.4893" stroke="#FAFAFA" stroke-miterlimit="10" stroke-linecap="round" stroke-linejoin="round"/>
<path id="Vector_4" d="M66.9451 50.0752V57.0479" stroke="#FAFAFA" stroke-miterlimit="10" stroke-linecap="round" stroke-linejoin="round"/>
<path id="Vector_5" d="M53.8201 17.5362H65.5779C66.333 17.5362 66.9451 18.1484 66.9451 18.9034V45.29" stroke="#FAFAFA" stroke-miterlimit="10" stroke-linecap="round" stroke-linejoin="round"/>
<path id="Vector_6" d="M54.5967 21.6378H66.8766" stroke="#FAFAFA" stroke-miterlimit="10" stroke-linecap="round" stroke-linejoin="round"/>
<path id="Vector_7" d="M4.12305 21.6378H16.4932" stroke="#FAFAFA" stroke-miterlimit="10" stroke-linecap="round" stroke-linejoin="round"/>
<path id="Vector_8" d="M26.0442 9.27176C24.6596 10.6806 23.8055 12.6126 23.8055 14.7438C23.8055 14.9029 23.8117 15.0606 23.8211 15.2172C23.2214 15.0048 22.5897 14.8964 21.9534 14.8968C18.8639 14.8968 16.3593 17.4013 16.3593 20.4909C16.3593 23.5803 18.8639 26.0848 21.9534 26.0848C22.0412 26.0848 22.1284 26.0822 22.2154 26.0783H48.7844C48.8717 26.0825 48.9591 26.0846 49.0465 26.0848C52.1359 26.0848 54.6405 23.5803 54.6405 20.4909C54.6405 17.4013 52.1359 14.8968 49.0465 14.8968C48.3655 14.8964 47.6902 15.0206 47.0539 15.2634C46.8334 11.6732 43.8534 8.82948 40.2078 8.82948C39.2219 8.82866 38.2476 9.0412 37.3516 9.45251C35.9251 7.90622 33.8824 6.93675 31.6126 6.93675C31.1331 6.93675 30.6637 6.97995 30.2081 7.06281" stroke="#FAFAFA" stroke-miterlimit="10" stroke-linecap="round" stroke-linejoin="round"/>
<path id="Vector_9" d="M59.0154 31.4888C59.0154 32.9988 57.7912 34.2231 56.2811 34.2231C54.7709 34.2231 53.5467 32.9988 53.5467 31.4888C53.5467 29.9786 54.7709 28.7544 56.2811 28.7544C57.7912 28.7544 59.0154 29.9786 59.0154 31.4888Z" stroke="#FAFAFA" stroke-miterlimit="10" stroke-linecap="round" stroke-linejoin="round"/>
<path id="Vector_10" d="M51.5643 38.591C51.5643 40.1011 50.3401 41.3253 48.8299 41.3253C47.3198 41.3253 46.0956 40.1011 46.0956 38.591C46.0956 37.0808 47.3198 35.8566 48.8299 35.8566C50.3401 35.8566 51.5643 37.0808 51.5643 38.591Z" stroke="#FAFAFA" stroke-miterlimit="10" stroke-linecap="round" stroke-linejoin="round"/>
<path id="Vector_11" d="M38.576 44.7432C38.576 46.2534 37.3519 47.4775 35.8417 47.4775C34.3315 47.4775 33.1073 46.2534 33.1073 44.7432C33.1073 43.233 34.3315 42.0088 35.8417 42.0088C37.3519 42.0088 38.576 43.233 38.576 44.7432Z" stroke="#FAFAFA" stroke-miterlimit="10" stroke-linecap="round" stroke-linejoin="round"/>
<path id="Vector_12" d="M53.41 31.4816H46.7792V26.2179" stroke="#FAFAFA" stroke-miterlimit="10" stroke-linecap="round" stroke-linejoin="round"/>
<path id="Vector_13" d="M12.5995 31.4888C12.5995 32.9988 13.8237 34.2231 15.3339 34.2231C16.8441 34.2231 18.0683 32.9988 18.0683 31.4888C18.0683 29.9786 16.8441 28.7544 15.3339 28.7544C13.8237 28.7544 12.5995 29.9786 12.5995 31.4888Z" stroke="#FAFAFA" stroke-miterlimit="10" stroke-linecap="round" stroke-linejoin="round"/>
<path id="Vector_14" d="M18.1367 31.4816H24.8359V26.2179" stroke="#FAFAFA" stroke-miterlimit="10" stroke-linecap="round" stroke-linejoin="round"/>
<path id="Vector_15" d="M35.8417 26.2863V41.9728" stroke="#FAFAFA" stroke-miterlimit="10" stroke-linecap="round" stroke-linejoin="round"/>
<path id="Vector_16" d="M41.3104 26.2863V38.6593H46.0272" stroke="#FAFAFA" stroke-miterlimit="10" stroke-linecap="round" stroke-linejoin="round"/>
<path id="Vector_17" d="M20.1191 38.591C20.1191 40.1011 21.3433 41.3253 22.8534 41.3253C24.3636 41.3253 25.5878 40.1011 25.5878 38.591C25.5878 37.0808 24.3636 35.8566 22.8534 35.8566C21.3433 35.8566 20.1191 37.0808 20.1191 38.591Z" stroke="#FAFAFA" stroke-miterlimit="10" stroke-linecap="round" stroke-linejoin="round"/>
<path id="Vector_18" d="M30.373 26.2863V38.6593H25.6562" stroke="#FAFAFA" stroke-miterlimit="10" stroke-linecap="round" stroke-linejoin="round"/>
</g>
</g>
</svg>
