<svg width="61" height="70" viewBox="0 0 61 70" fill="none" xmlns="http://www.w3.org/2000/svg">
<g id="Frame 70">
<g id="Group 11">
<path id="Vector" d="M31.827 14.1307H48.4094L52.379 18.1126V51.3532L48.4094 55.3313H31.827" stroke="#FAFAFA" stroke-miterlimit="10" stroke-linecap="round" stroke-linejoin="round"/>
<path id="Vector_2" d="M45.5647 40.9049V48.5023H31.827M31.827 20.9636H45.5647V28.5455" stroke="#FAFAFA" stroke-miterlimit="10" stroke-linecap="round" stroke-linejoin="round"/>
<path id="Vector_3" d="M31.8268 61.6419C31.8268 65.4717 28.7252 68.5801 24.9034 68.5801C21.3971 68.5801 18.5017 65.9671 18.0425 62.5817C12.0298 62.5037 7.18078 57.5936 7.18078 51.5484C7.18078 49.5867 7.69063 47.7457 8.58567 46.1506C4.07134 44.3332 0.884064 39.9066 0.884064 34.7311C0.884064 29.5596 4.07134 25.129 8.58567 23.3156C7.69063 21.7165 7.18078 19.8756 7.18078 17.914C7.18078 11.8688 12.0298 6.95855 18.0425 6.88054C18.5017 3.49528 21.3971 0.886037 24.9034 0.886037C28.7252 0.886037 31.8268 3.99061 31.8268 7.82426V61.6419Z" stroke="#FAFAFA" stroke-miterlimit="10" stroke-linecap="round" stroke-linejoin="round"/>
<path id="Vector_4" d="M18.0425 6.88047C19.4124 6.9311 20.7977 7.251 22.121 7.85543C23.3585 8.42491 24.4404 9.20106 25.3394 10.1252" stroke="#FAFAFA" stroke-miterlimit="10" stroke-linecap="round" stroke-linejoin="round"/>
<path id="Vector_5" d="M18.0425 62.5818C19.4528 62.5291 20.8388 62.1978 22.121 61.6068C23.323 61.0552 24.4139 60.2871 25.3394 59.3409" stroke="#FAFAFA" stroke-miterlimit="10" stroke-linecap="round" stroke-linejoin="round"/>
<path id="Vector_6" d="M52.3828 34.7312H58.952" stroke="#FAFAFA" stroke-miterlimit="10" stroke-linecap="round" stroke-linejoin="round"/>
<path id="Vector_7" d="M52.3828 41.2286H58.952" stroke="#FAFAFA" stroke-miterlimit="10" stroke-linecap="round" stroke-linejoin="round"/>
<path id="Vector_8" d="M52.3828 47.7223H58.952" stroke="#FAFAFA" stroke-miterlimit="10" stroke-linecap="round" stroke-linejoin="round"/>
<path id="Vector_9" d="M52.3828 28.2374H58.952" stroke="#FAFAFA" stroke-miterlimit="10" stroke-linecap="round" stroke-linejoin="round"/>
<path id="Vector_10" d="M52.3828 21.7399H58.952" stroke="#FAFAFA" stroke-miterlimit="10" stroke-linecap="round" stroke-linejoin="round"/>
<path id="Vector_11" d="M38.3065 14.1307V7.54735" stroke="#FAFAFA" stroke-miterlimit="10" stroke-linecap="round" stroke-linejoin="round"/>
<path id="Vector_12" d="M44.7901 14.1307V7.54735" stroke="#FAFAFA" stroke-miterlimit="10" stroke-linecap="round" stroke-linejoin="round"/>
<path id="Vector_13" d="M38.3065 61.9186V55.3313" stroke="#FAFAFA" stroke-miterlimit="10" stroke-linecap="round" stroke-linejoin="round"/>
<path id="Vector_14" d="M44.7901 61.9186V55.3313" stroke="#FAFAFA" stroke-miterlimit="10" stroke-linecap="round" stroke-linejoin="round"/>
<path id="Vector_15" d="M20.6772 34.7312H31.8269" stroke="#FAFAFA" stroke-miterlimit="10" stroke-linecap="round" stroke-linejoin="round"/>
<path id="Vector_16" d="M17.1786 38.2374C19.105 38.2374 20.6772 36.6618 20.6772 34.7312C20.6772 32.8007 19.105 31.2289 17.1786 31.2289C15.2522 31.2289 13.6838 32.8007 13.6838 34.7312C13.6838 36.6618 15.2522 38.2374 17.1786 38.2374Z" stroke="#FAFAFA" stroke-miterlimit="10" stroke-linecap="round" stroke-linejoin="round"/>
<path id="Vector_17" d="M25.6118 26.0691H31.8268" stroke="#FAFAFA" stroke-miterlimit="10" stroke-linecap="round" stroke-linejoin="round"/>
<path id="Vector_18" d="M20.7356 21.1822L25.6118 26.0691" stroke="#FAFAFA" stroke-miterlimit="10" stroke-linecap="round" stroke-linejoin="round"/>
<path id="Vector_19" d="M15.7892 21.1823C17.1553 22.5512 19.3697 22.5512 20.7356 21.1823C22.1016 19.8133 22.1016 17.5943 20.7356 16.2253C19.3697 14.8564 17.1553 14.8564 15.7892 16.2253C14.4233 17.5943 14.4233 19.8133 15.7892 21.1823Z" stroke="#FAFAFA" stroke-miterlimit="10" stroke-linecap="round" stroke-linejoin="round"/>
<path id="Vector_20" d="M25.6118 43.3933H31.8268" stroke="#FAFAFA" stroke-miterlimit="10" stroke-linecap="round" stroke-linejoin="round"/>
<path id="Vector_21" d="M20.7356 48.2839L25.6118 43.3932" stroke="#FAFAFA" stroke-miterlimit="10" stroke-linecap="round" stroke-linejoin="round"/>
<path id="Vector_22" d="M15.7892 48.284C17.1553 46.9152 19.3697 46.9152 20.7356 48.284C22.1016 49.6531 22.1016 51.8721 20.7356 53.2373C19.3697 54.6061 17.1553 54.6061 15.7892 53.2373C14.4233 51.8721 14.4233 49.6531 15.7892 48.284Z" stroke="#FAFAFA" stroke-miterlimit="10" stroke-linecap="round" stroke-linejoin="round"/>
<path id="Vector_23" d="M45.5644 34.7312V34.7262" stroke="#FAFAFA" stroke-miterlimit="10" stroke-linecap="round" stroke-linejoin="round"/>
</g>
</g>
</svg>
