<svg width="56" height="70" viewBox="0 0 56 70" fill="none" xmlns="http://www.w3.org/2000/svg">
<g id="development 1">
<g id="Clip path group">
<path id="Vector" d="M43.5054 11.7346H45.0041C45.759 11.7346 46.3713 12.3467 46.3713 13.1018V15.7358" stroke="#FAFAFA" stroke-miterlimit="10" stroke-linecap="round" stroke-linejoin="round"/>
<path id="Vector_2" d="M5.02246 11.7348H3.33905C2.58395 11.7348 1.97186 12.3469 1.97186 13.102V18.4973C1.97186 19.2524 2.58395 19.8645 3.33905 19.8645H5.02246" stroke="#FAFAFA" stroke-miterlimit="10" stroke-linecap="round" stroke-linejoin="round"/>
<path id="Vector_3" d="M5.02246 22.9333H3.33905C2.58395 22.9333 1.97186 23.5454 1.97186 24.3005V29.6958C1.97186 30.4509 2.58395 31.063 3.33905 31.063H5.02246" stroke="#FAFAFA" stroke-miterlimit="10" stroke-linecap="round" stroke-linejoin="round"/>
<path id="Vector_4" d="M39.7875 15.7359V5.12713C39.7875 4.94583 39.7154 4.77196 39.5872 4.64376C39.459 4.51556 39.2852 4.44354 39.1039 4.44354H31.5723C31.4352 4.44353 31.3012 4.48478 31.1878 4.56192C31.0744 4.63907 30.9868 4.74854 30.9364 4.87612L30.154 6.85826C30.0533 7.11338 29.8782 7.33231 29.6514 7.4866C29.4246 7.64089 29.1567 7.7234 28.8824 7.72342H19.4606C19.1863 7.7234 18.9184 7.64089 18.6916 7.4866C18.4648 7.33231 18.2897 7.11338 18.189 6.85826L17.4065 4.87612C17.3562 4.74854 17.2686 4.63907 17.1552 4.56192C17.0418 4.48478 16.9078 4.44353 16.7706 4.44354H9.24048C9.05918 4.44354 8.8853 4.51556 8.7571 4.64376C8.62891 4.77196 8.55688 4.94583 8.55688 5.12713V64.873C8.55688 65.0543 8.62891 65.2282 8.7571 65.3564C8.8853 65.4846 9.05918 65.5566 9.24048 65.5566H12.5771" stroke="#FAFAFA" stroke-miterlimit="10" stroke-linecap="round" stroke-linejoin="round"/>
<path id="Vector_5" d="M17.1553 65.5566H39.1039C39.2852 65.5566 39.4591 65.4846 39.5873 65.3564C39.7155 65.2282 39.7875 65.0543 39.7875 64.873V34.2011" stroke="#FAFAFA" stroke-miterlimit="10" stroke-linecap="round" stroke-linejoin="round"/>
<path id="Vector_6" d="M43.2056 15.868V5.12714C43.2056 2.86185 41.3692 1.02559 39.104 1.02559H9.23979C6.97465 1.02559 5.13824 2.86185 5.13824 5.12714V64.8731C5.13824 67.1382 6.97465 68.9746 9.23979 68.9746H39.104C41.3692 68.9746 43.2056 67.1382 43.2056 64.8731V48.7121" stroke="#FAFAFA" stroke-miterlimit="10" stroke-linecap="round" stroke-linejoin="round"/>
<path id="Vector_7" d="M43.2056 44.134V34.201" stroke="#FAFAFA" stroke-miterlimit="10" stroke-linecap="round" stroke-linejoin="round"/>
<path id="Vector_8" d="M21.1325 4.4436H23.8743" stroke="#FAFAFA" stroke-miterlimit="10" stroke-linecap="round" stroke-linejoin="round"/>
<path id="Vector_9" d="M27.2104 4.45068V4.4366" stroke="#FAFAFA" stroke-miterlimit="10" stroke-linecap="round" stroke-linejoin="round"/>
<path id="Vector_10" d="M18.8991 61.115H29.4438" stroke="#FAFAFA" stroke-miterlimit="10" stroke-linecap="round" stroke-linejoin="round"/>
<path id="Vector_11" d="M31.1083 16.0731H27.3283C26.5732 16.0731 25.9611 16.6852 25.9611 17.4403V32.6853C25.9611 33.4404 26.5732 34.0525 27.3283 34.0525H52.6606C53.4157 34.0525 54.0278 33.4404 54.0278 32.6853V17.4403C54.0278 16.6852 53.4157 16.0731 52.6606 16.0731H35.6864" stroke="#FAFAFA" stroke-miterlimit="10" stroke-linecap="round" stroke-linejoin="round"/>
<path id="Vector_12" d="M34.9632 21.6634L31.3911 25.0628L34.9632 28.4622" stroke="#FAFAFA" stroke-miterlimit="10" stroke-linecap="round" stroke-linejoin="round"/>
<path id="Vector_13" d="M45.0257 21.6634L48.5979 25.0628L45.0257 28.4622" stroke="#FAFAFA" stroke-miterlimit="10" stroke-linecap="round" stroke-linejoin="round"/>
<path id="Vector_14" d="M38.6362 28.4622L41.3526 21.6634" stroke="#FAFAFA" stroke-miterlimit="10" stroke-linecap="round" stroke-linejoin="round"/>
<path id="Vector_15" d="M13.7372 38.8918V38.8778" stroke="#FAFAFA" stroke-miterlimit="10" stroke-linecap="round" stroke-linejoin="round"/>
<path id="Vector_16" d="M17.5286 38.8918H22.3165" stroke="#FAFAFA" stroke-miterlimit="10" stroke-linecap="round" stroke-linejoin="round"/>
<path id="Vector_17" d="M13.7372 43.252V43.2379" stroke="#FAFAFA" stroke-miterlimit="10" stroke-linecap="round" stroke-linejoin="round"/>
<path id="Vector_18" d="M17.5286 43.252H31.5334" stroke="#FAFAFA" stroke-miterlimit="10" stroke-linecap="round" stroke-linejoin="round"/>
<path id="Vector_19" d="M13.7372 47.6123V47.5982" stroke="#FAFAFA" stroke-miterlimit="10" stroke-linecap="round" stroke-linejoin="round"/>
<path id="Vector_20" d="M17.5286 47.6123H34.6057" stroke="#FAFAFA" stroke-miterlimit="10" stroke-linecap="round" stroke-linejoin="round"/>
<path id="Vector_21" d="M13.7372 51.9727V51.9586" stroke="#FAFAFA" stroke-miterlimit="10" stroke-linecap="round" stroke-linejoin="round"/>
<path id="Vector_22" d="M17.5286 51.9727H34.6057" stroke="#FAFAFA" stroke-miterlimit="10" stroke-linecap="round" stroke-linejoin="round"/>
<path id="Vector_23" d="M13.7876 31.7971H21.8402" stroke="#FAFAFA" stroke-miterlimit="10" stroke-linecap="round" stroke-linejoin="round"/>
<path id="Vector_24" d="M13.7876 27.4368H21.8402" stroke="#FAFAFA" stroke-miterlimit="10" stroke-linecap="round" stroke-linejoin="round"/>
<path id="Vector_25" d="M13.7876 23.0764H21.8402" stroke="#FAFAFA" stroke-miterlimit="10" stroke-linecap="round" stroke-linejoin="round"/>
<path id="Vector_26" d="M13.7876 18.7163H21.8402" stroke="#FAFAFA" stroke-miterlimit="10" stroke-linecap="round" stroke-linejoin="round"/>
</g>
</g>
</svg>
