<svg width="78" height="70" viewBox="0 0 78 70" fill="none" xmlns="http://www.w3.org/2000/svg">
<g id="front-end 1">
<g id="Group 13">
<path id="Vector" d="M24.928 6.54605H72.1256V46.666H5.87439V6.54605H19.948" stroke="#FAFAFA" stroke-miterlimit="10" stroke-linecap="round" stroke-linejoin="round"/>
<path id="Vector_2" d="M53.1963 68.2632H24.8036V65.8083C24.8036 64.542 25.8268 63.5157 27.0888 63.5157H50.9111C52.1732 63.5157 53.1963 64.542 53.1963 65.8083V68.2632Z" stroke="#FAFAFA" stroke-miterlimit="10" stroke-linecap="round" stroke-linejoin="round"/>
<path id="Vector_3" d="M43.732 63.5159H34.2676V56.2226H43.732V63.5159Z" stroke="#FAFAFA" stroke-miterlimit="10" stroke-linecap="round" stroke-linejoin="round"/>
<path id="Vector_4" d="M34.2678 51.6472H43.7321" stroke="#FAFAFA" stroke-miterlimit="10" stroke-linecap="round" stroke-linejoin="round"/>
<path id="Vector_5" d="M76.8572 32.7289V53.9306C76.8572 55.1961 75.8335 56.2231 74.5721 56.2231H3.42773C2.16633 56.2231 1.14258 55.1961 1.14258 53.9306V4.09164C1.14258 2.82461 2.16633 1.79907 3.42773 1.79907H74.5721C75.8335 1.79907 76.8572 2.82461 76.8572 4.09164V27.7326" stroke="#FAFAFA" stroke-miterlimit="10" stroke-linecap="round" stroke-linejoin="round"/>
<path id="Vector_6" d="M34.2676 42.1213H10.6071V11.2627H34.2676V42.1213Z" stroke="#FAFAFA" stroke-miterlimit="10" stroke-linecap="round" stroke-linejoin="round"/>
<path id="Vector_7" d="M17.7053 31.3533V21.8582L27.1697 26.6058L17.7053 31.3533Z" stroke="#FAFAFA" stroke-miterlimit="10" stroke-linecap="round" stroke-linejoin="round"/>
<path id="Vector_8" d="M53.1963 25.5051H38.9999V11.2626H53.1963V25.5051Z" stroke="#FAFAFA" stroke-miterlimit="10" stroke-linecap="round" stroke-linejoin="round"/>
<path id="Vector_9" d="M55.686 42.1208H67.3921V30.253H38.9999V42.1208H50.7059" stroke="#FAFAFA" stroke-miterlimit="10" stroke-linecap="round" stroke-linejoin="round"/>
<path id="Vector_10" d="M57.9284 11.2627H67.3926" stroke="#FAFAFA" stroke-miterlimit="10" stroke-linecap="round" stroke-linejoin="round"/>
<path id="Vector_11" d="M57.9284 16.01H67.3926" stroke="#FAFAFA" stroke-miterlimit="10" stroke-linecap="round" stroke-linejoin="round"/>
<path id="Vector_12" d="M57.9284 20.7576H67.3926" stroke="#FAFAFA" stroke-miterlimit="10" stroke-linecap="round" stroke-linejoin="round"/>
<path id="Vector_13" d="M57.9284 25.5051H67.3926" stroke="#FAFAFA" stroke-miterlimit="10" stroke-linecap="round" stroke-linejoin="round"/>
</g>
</g>
</svg>
