<svg width="114" height="58" viewBox="0 0 114 58" fill="none" xmlns="http://www.w3.org/2000/svg">
<g style="mix-blend-mode:luminosity">
<path d="M1.462 19.0545H5.1L5.61 20.2785C6.10867 19.8252 6.57333 19.5079 7.004 19.3265C7.45733 19.1452 8.126 19.0545 9.01 19.0545H12.07C13.022 19.9839 13.77 21.1852 14.314 22.6585C14.858 24.1319 15.13 25.7525 15.13 27.5205C15.13 31.3059 13.9967 34.2752 11.73 36.4285H8.84C7.63867 36.4285 6.68667 36.1112 5.984 35.4765V41.5285H1.462V19.0545ZM5.984 32.8585H9.248C10.0867 31.4305 10.506 29.6965 10.506 27.6565C10.506 25.6165 10.0753 23.9392 9.214 22.6245H5.984V32.8585ZM27.9015 36.4285H20.4895C18.2228 34.3205 17.0895 31.4419 17.0895 27.7925C17.0895 25.9565 17.3388 24.3585 17.8375 22.9985C18.3588 21.6385 19.1748 20.3239 20.2855 19.0545H28.2415C29.4202 20.4145 30.2248 21.7405 30.6555 23.0325C31.0862 24.3019 31.3015 25.8885 31.3015 27.7925C31.3015 31.4419 30.1682 34.3205 27.9015 36.4285ZM22.9035 32.8585H25.4875C26.3035 31.2719 26.7115 29.4699 26.7115 27.4525C26.7115 25.4352 26.2922 23.8259 25.4535 22.6245H22.9035C22.0875 23.7805 21.6795 25.4239 21.6795 27.5545C21.6795 29.6625 22.0875 31.4305 22.9035 32.8585ZM46.8934 36.4285H43.4594L42.8474 35.2045C42.3488 35.6579 41.8728 35.9752 41.4194 36.1565C40.9888 36.3379 40.3314 36.4285 39.4474 36.4285H36.4894C35.4921 35.4765 34.6988 34.2299 34.1094 32.6885C33.5428 31.1472 33.2594 29.4245 33.2594 27.5205C33.2594 25.5939 33.5428 23.9619 34.1094 22.6245C34.6988 21.2872 35.5261 20.0972 36.5914 19.0545H39.5154C40.7168 19.0545 41.6688 19.3719 42.3714 20.0065V12.6285H46.8934V36.4285ZM42.3714 22.6245H39.1074C38.2688 24.0525 37.8494 25.8092 37.8494 27.8945C37.8494 29.9572 38.2574 31.6119 39.0734 32.8585H42.3714V22.6245Z" fill="#C1C2C2"/>
<path d="M54 4C54 1.79086 55.7909 0 58 0H110C112.209 0 114 1.79086 114 4V45.7143C114 47.9234 112.209 49.7143 110 49.7143H58C55.7909 49.7143 54 47.9234 54 45.7143V4Z" fill="url(#paint0_linear_3677_23401)"/>
<path d="M67.678 24.16C67.678 25.112 67.8253 26.0867 68.12 27.084C68.4147 28.0587 68.8227 28.8407 69.344 29.43H74.444V33H66.998C64.3233 30.8693 62.986 27.9227 62.986 24.16C62.986 20.3973 64.414 17.5527 67.27 15.626H74.444V19.196H69.344C68.2333 20.352 67.678 22.0067 67.678 24.16ZM82.728 33H79.158C78.1607 31.7307 77.4807 30.4613 77.118 29.192C76.7554 27.9227 76.574 26.336 76.574 24.432V15.626H81.096V24.772C81.096 26.8347 81.504 28.3873 82.32 29.43H85.482V15.626H90.004V33H86.434L85.822 31.776C84.9607 32.592 83.9294 33 82.728 33ZM93.9332 25.418V19.196H91.5872V15.626H93.9332V10.9H98.4552V15.626H101.243V19.196H98.4552V26.506C98.4552 27.8887 98.6932 28.8633 99.1692 29.43H101.243V33H96.4152C95.2138 31.8893 94.4885 30.688 94.2392 29.396C94.0352 28.308 93.9332 26.982 93.9332 25.418Z" fill="#FAFAFA"/>
<path d="M70.0747 58L62 47.6429L78 47.6429L70.0747 58Z" fill="#C1C2C2"/>
</g>
<defs>
<linearGradient id="paint0_linear_3677_23401" x1="54.6122" y1="1.24286" x2="120.487" y2="13.7882" gradientUnits="userSpaceOnUse">
<stop stop-color="#4A7EF7"/>
<stop offset="1" stop-color="#6099FA"/>
</linearGradient>
</defs>
</svg>
