<svg width="105" height="72" viewBox="0 0 105 72" fill="none" xmlns="http://www.w3.org/2000/svg">
<g style="mix-blend-mode:luminosity">
<path d="M52.2013 0.213352C52.0241 0.336718 51.0328 0.886256 50.0025 1.44702C48.9722 2.00778 47.4692 2.83769 46.6554 3.29751C45.8416 3.74611 44.424 4.53118 43.5052 5.03586C42.5864 5.54054 40.7553 6.5499 39.4361 7.27888C38.117 8.00787 36.2859 9.01721 35.3671 9.53316C33.5951 10.5089 31.6196 11.5967 29.1979 12.9425C28.3841 13.3911 26.9271 14.1986 25.9492 14.7369C24.9779 15.2752 23.1272 16.2846 21.8474 17.0024C20.5676 17.709 18.8416 18.6622 18.0081 19.1221C17.1811 19.5819 16.1901 20.1315 15.8095 20.3445C15.4288 20.5464 14.2869 21.1857 13.263 21.7464C12.0555 22.4081 11.4123 22.8231 11.4254 22.9016C11.4451 22.98 11.6157 23.8661 11.8061 24.8866C11.9964 25.9072 12.1802 26.782 12.2064 26.8381C12.2327 26.8829 12.3967 26.8493 12.5739 26.7596C13.4796 26.2661 15.8554 24.9651 15.9276 24.9203C15.9867 24.8755 16.0063 27.825 16.0063 39.4551V54.046H17.319H18.6316V49.0552V44.0645H19.6488H20.6661V49.0552V54.046H21.9787H23.2912V42.5505V31.0549H21.9787H20.6661V35.5971V40.1392H19.6488H18.6316V31.7951V23.4511L18.8088 23.339C18.9138 23.2717 19.8326 22.7558 20.863 22.195C21.8933 21.6342 23.3569 20.8267 24.1116 20.4118C24.873 19.9856 26.2906 19.2006 27.2619 18.6622C28.2398 18.1351 29.9921 17.1594 31.1537 16.5201C33.8314 15.0285 37.8086 12.8416 38.4517 12.494C38.7208 12.3481 39.8168 11.7425 40.88 11.1481C41.9432 10.5537 43.0852 9.92563 43.4068 9.7574C43.7349 9.57799 45.3888 8.66956 47.082 7.72749C48.7818 6.78542 50.3899 5.89942 50.6587 5.75363C50.9279 5.59661 51.4856 5.2938 51.8927 5.06951L52.6276 4.65454L53.3693 5.06951C54.3538 5.61904 56.7229 6.93122 58.8955 8.13124C62.1048 9.89199 63.3974 10.6098 65.7537 11.922C68.615 13.5033 71.9818 15.365 72.9071 15.8697C73.2881 16.0716 74.6924 16.8454 76.0249 17.5856C77.3637 18.3258 79.5162 19.5146 80.8157 20.2211C82.1151 20.9389 84.1431 22.0604 85.3308 22.7222L87.4769 23.9221V38.9841V54.046H88.7897H90.1024V39.7804C90.1024 29.9671 90.1221 25.4923 90.1679 25.4698C90.2073 25.4474 90.8373 25.7614 91.5658 26.1652C92.3007 26.5689 92.9308 26.9054 92.9701 26.9054C93.0095 26.9054 93.2133 26.0306 93.4166 24.9651C93.6268 23.9109 93.8104 22.98 93.8236 22.9128C93.8433 22.8231 93.2 22.4193 92.091 21.8025C88.7764 19.9744 87.5754 19.3015 85.7049 18.281C84.6747 17.709 83.2177 16.9015 82.4563 16.4753C81.7017 16.0604 80.3235 15.2977 79.4045 14.793C78.486 14.2883 76.6549 13.279 75.3358 12.55C74.0166 11.821 72.1462 10.778 71.1681 10.2509C70.197 9.71257 69.1466 9.12941 68.8384 8.94991C68.5298 8.78169 67.4863 8.19853 66.5082 7.6602C65.5371 7.13309 64.1195 6.34803 63.358 5.93307C62.6034 5.5069 61.3433 4.81156 60.5691 4.38538C56.6377 2.22086 55.2989 1.48066 54.0191 0.762893C53.2512 0.336718 52.6015 -0.0109512 52.5754 0.000263934C52.5488 0.000263934 52.3849 0.1012 52.2013 0.213352Z" fill="#C1C2C2"/>
<path d="M2.82129 30.8868C1.54807 31.3578 0.668636 32.7149 0.373302 34.6327C0.143598 36.1467 0.261731 38.4794 0.635819 39.7468C1.03616 41.115 1.5087 42.0234 2.84754 43.9861C3.81886 45.4104 4.08794 45.859 4.38328 46.588C4.65236 47.2609 4.78362 47.9226 4.78362 48.6404C4.78362 49.6834 4.50141 50.2441 3.87793 50.4124C3.12975 50.6142 2.64409 49.6385 2.51283 47.6646L2.47345 47.0142L2.13218 47.1039C1.94841 47.1488 1.40369 47.2721 0.91803 47.3843C0.301109 47.5301 0.0320273 47.631 0.00577541 47.7431C-0.0139135 47.8329 0.0189014 48.3375 0.0714052 48.8759C0.333924 51.4217 1.17399 53.3059 2.35532 54.0012C3.69417 54.7975 5.4071 54.203 6.33248 52.6217C7.3563 50.8834 7.57943 47.8777 6.88377 45.3319C6.52937 44.0197 6.00431 42.9767 4.82299 41.2384C3.07068 38.6477 2.71628 37.8626 2.71628 36.5505C2.72284 35.3392 3.05755 34.6439 3.64166 34.6439C4.15357 34.6439 4.52766 35.3056 4.65236 36.4383C4.69173 36.7635 4.73111 37.0551 4.7508 37.0888C4.79018 37.1561 7.10689 36.7635 7.16596 36.6738C7.19224 36.6289 7.17256 36.2027 7.12004 35.743C6.83125 33.1747 5.97808 31.4587 4.68517 30.8756C4.27171 30.6849 3.36602 30.6962 2.82129 30.8868Z" fill="#C1C2C2"/>
<path d="M10.5328 30.898C9.52864 31.3129 8.74768 32.3223 8.33422 33.7354C7.96667 34.9802 7.96667 35.0139 7.96667 42.5505C7.96667 50.1319 7.96667 50.1543 8.34731 51.388C8.9052 53.2161 9.90273 54.2142 11.2876 54.3488C13.1186 54.5282 14.5099 52.9469 14.9365 50.2216C15.0153 49.6833 15.0481 49.0104 15.0481 47.4852L15.0547 45.4664H13.7749H12.4951L12.4623 47.5075C12.4295 49.3468 12.4164 49.5712 12.2917 49.8627C12.1079 50.2889 11.8979 50.4571 11.5435 50.4571C11.13 50.4571 10.815 50.1543 10.6575 49.616C10.5328 49.1786 10.5262 48.9431 10.5262 42.5505C10.5262 35.2942 10.5197 35.3615 10.92 34.913C11.1694 34.6326 11.6747 34.5765 11.9241 34.8008C12.3114 35.1373 12.4229 35.7204 12.4623 37.5037L12.4951 39.0738H13.7749H15.0547L15.0481 37.5598C15.035 35.6532 14.9562 34.9241 14.6281 33.7915C14.0571 31.7951 12.9414 30.7073 11.5041 30.7297C11.1825 30.7297 10.7428 30.8082 10.5328 30.898Z" fill="#C1C2C2"/>
<path d="M26.6711 30.8867C25.4439 31.3578 24.6169 32.6139 24.2363 34.599L24.046 35.5971V42.5505C24.046 48.9879 24.0525 49.5487 24.1641 50.1768C24.5316 52.1843 25.1551 53.3282 26.2314 53.9675C27.2815 54.5843 28.5481 54.4721 29.5129 53.6871C30.0642 53.2385 30.6614 52.2292 30.9108 51.3095C31.298 49.8964 31.3046 49.6497 31.2849 42.1131C31.2652 35.4738 31.2586 35.2382 31.1208 34.6438C30.6483 32.5017 29.8739 31.3354 28.6138 30.8755C28.0756 30.6848 27.1896 30.6848 26.6711 30.8867ZM28.325 34.9354C28.6597 35.3616 28.6663 35.4401 28.6663 42.5505C28.6663 49.6497 28.6597 49.7394 28.3315 50.1543C27.8853 50.7263 26.9533 50.4123 26.763 49.6385C26.6908 49.3469 26.6711 47.9562 26.6711 42.4944C26.6711 34.9466 26.658 35.227 27.1108 34.8232C27.4128 34.5653 28.0822 34.6214 28.325 34.9354Z" fill="#C1C2C2"/>
<path d="M34.9076 30.7971C33.4966 31.2009 32.44 32.8495 32.1578 35.0813C32.0527 35.9112 32.0527 49.1787 32.1578 50.0198C32.3874 51.8928 33.1422 53.3059 34.2513 53.9788C34.7567 54.2816 34.8879 54.3153 35.6296 54.3265C36.4893 54.3265 37.0668 54.1134 37.6772 53.5863C38.0841 53.2274 38.6682 52.162 38.8979 51.3545C39.2851 49.975 39.3048 49.5713 39.3048 42.5506C39.3048 37.2794 39.2851 36.057 39.2064 35.3393C38.8585 32.4008 37.5459 30.6962 35.6624 30.741C35.3408 30.741 34.9995 30.7747 34.9076 30.7971ZM36.2202 34.8458C36.6928 35.2383 36.6796 35.0252 36.6796 42.5506C36.6796 48.7301 36.6731 49.3133 36.5615 49.6722C36.2727 50.6703 35.1505 50.7264 34.8026 49.7507C34.6845 49.403 34.6779 49.1339 34.6779 42.5506C34.6779 34.9467 34.6648 35.2159 35.1176 34.8346C35.4064 34.5878 35.9314 34.5991 36.2202 34.8458Z" fill="#C1C2C2"/>
<path d="M61.6519 30.8867C60.4115 31.3465 59.6106 32.569 59.1972 34.6213L59.0264 35.4849V42.5505V49.616L59.2105 50.5356C59.5516 52.2628 60.1816 53.3506 61.2118 53.9787C61.737 54.2927 61.8488 54.3152 62.6363 54.3152C63.3845 54.3152 63.5548 54.2703 64.0274 54.0011C64.9596 53.4852 65.6684 52.3413 66.0095 50.816C66.2522 49.7281 66.2916 48.4945 66.2655 41.8215C66.2394 36.2363 66.2261 35.4064 66.1277 34.8232C65.7797 32.7933 64.9006 31.3914 63.6469 30.8867C63.1413 30.6848 62.1899 30.6848 61.6519 30.8867ZM63.1679 34.812C63.3318 34.9241 63.4303 35.1036 63.5223 35.4513C63.6469 35.9111 63.6533 36.2363 63.6533 42.5168C63.6533 49.7281 63.6533 49.7618 63.2728 50.1992C63.0232 50.4796 62.2489 50.4796 61.9994 50.1992C61.6189 49.7618 61.6189 49.7281 61.6189 42.4607C61.6189 36.2363 61.6253 35.7989 61.737 35.4288C61.8025 35.2158 61.96 34.9466 62.085 34.8457C62.3538 34.599 62.8529 34.5877 63.1679 34.812Z" fill="#C1C2C2"/>
<path d="M39.9611 42.5505V54.046H43.0129H46.0647V52.0833V50.1207H44.2927H42.5207V40.5879V31.055H41.2409H39.9611V42.5505Z" fill="#C1C2C2"/>
<path d="M52.1028 42.5505V54.046H53.3826H54.6624V49.0553V44.0645H56.1716H57.6812V42.1019V40.1392H56.1716H54.6624V37.5598V34.9803H56.6638H58.6656V33.0177V31.055H55.384H52.1028V42.5505Z" fill="#C1C2C2"/>
<path d="M67.0004 42.5505V54.046H68.3132H69.6259V49.4478V44.8496H70.0852C70.4396 44.8496 70.5444 44.8832 70.5444 45.0066C70.5444 45.0964 70.6759 45.9375 70.8398 46.8908C71.0042 47.8328 71.2404 49.1898 71.365 49.8964C71.4895 50.6029 71.6997 51.8254 71.8375 52.6105L72.0871 54.046H73.4126H74.7382L74.6136 53.3955C74.3444 52.0273 72.9598 44.659 72.8943 44.2776C72.8283 43.8627 72.8283 43.8627 73.3142 43.044C73.734 42.3262 73.8325 42.0907 74.0033 41.3168C74.2725 40.1505 74.3774 38.7486 74.3247 37.2121C74.2331 34.5204 73.6883 32.7485 72.6644 31.8064C71.995 31.2008 71.3389 31.055 69.055 31.055H67.0004V42.5505ZM70.8467 34.8793C71.5358 35.1822 71.7587 36.0458 71.713 38.2775C71.6933 39.3317 71.6667 39.6122 71.5289 40.0719C71.3059 40.8346 71.0563 41.0365 70.2491 41.1149L69.6259 41.1822V37.9635V34.756H70.0916C70.3411 34.756 70.6823 34.8121 70.8467 34.8793Z" fill="#C1C2C2"/>
<path d="M80.3234 42.5505V54.046H83.4082H86.4924V52.0833V50.1207H84.7204H82.9484V40.5879V31.055H81.6362H80.3234V42.5505Z" fill="#C1C2C2"/>
<path d="M90.9554 42.5505V54.046H92.2352H93.5149L93.5282 49.0777L93.5479 44.1206L95.0443 44.087L96.5337 44.0645V42.1243V40.1841L96.3565 40.1729C96.2517 40.1729 95.5759 40.1617 94.8474 40.1505L93.5149 40.1392V37.5598V34.9803H95.5493H97.5841V33.0177V31.055H94.2695H90.9554V42.5505Z" fill="#C1C2C2"/>
<path d="M98.3717 42.5505V54.046H101.686H105V52.0833V50.1207H102.999H100.997V47.0926V44.0645H102.44H103.885V42.1019V40.1392H102.44H100.997V37.5598V34.9803H102.867H104.738V33.0177V31.055H101.554H98.3717V42.5505Z" fill="#C1C2C2"/>
<path d="M33.4966 58.4423C32.9913 58.7451 32.7944 59.362 32.755 60.7975L32.7222 61.8966H32.3874H32.0527L32.0593 62.7041C32.0593 63.3209 32.0856 63.5228 32.1578 63.534C32.2102 63.5452 32.3612 63.5564 32.499 63.5677L32.7418 63.5789V67.6724V71.7659H33.3653H33.9888V67.6724V63.5789H34.317H34.6451V62.7377V61.8966H34.317H33.9888V61.0667C33.9888 60.1246 34.0348 60.0013 34.4482 59.9115L34.7107 59.8442V59.0816V58.3077L34.2054 58.319C33.9232 58.319 33.6082 58.375 33.4966 58.4423Z" fill="#C1C2C2"/>
<path d="M52.1289 58.5768C52.1092 58.6666 52.0959 58.8012 52.1092 58.8797C52.1156 58.9694 52.1156 59.8666 52.1092 60.876L52.1028 62.7265L51.9256 62.4237C51.2955 61.4031 50.3239 61.4592 49.904 62.547C49.6417 63.2199 49.5954 64.0162 49.622 67.2686C49.6417 70.1397 49.6481 70.2743 49.7992 70.7901C50.0089 71.5303 50.3175 71.9004 50.7571 71.9677C51.2099 72.035 51.5382 71.8331 51.8862 71.2836L52.1683 70.835V71.3061V71.7658H52.7589H53.3496V65.0929V58.4199H52.7589C52.3125 58.4199 52.155 58.4535 52.1289 58.5768ZM51.8399 63.5788C52.0043 63.7246 52.1028 63.8928 52.1156 64.0499C52.1289 64.1956 52.1289 65.5639 52.1156 67.0891L52.0959 69.8705L51.8203 70.0836C51.4531 70.3752 51.2956 70.364 51.0721 70.0387L50.8885 69.7696V66.8536V63.9377L51.046 63.6461C51.2429 63.2872 51.4855 63.276 51.8399 63.5788Z" fill="#C1C2C2"/>
<path d="M62.3411 59.3733V60.3378L62.9514 60.3042L63.5549 60.2705V59.3733V58.476L62.9514 58.4424L62.3411 58.4088V59.3733Z" fill="#C1C2C2"/>
<path d="M59.4531 60.5507V61.8966H59.1248H58.7901L58.8098 62.704L58.8295 63.5227L59.1381 63.5564L59.4467 63.59L59.4664 67.0891C59.4861 70.521 59.4861 70.5995 59.6367 71.0033C59.8602 71.6201 60.1752 71.9004 60.6999 71.9677C60.9495 71.9902 61.2251 71.9902 61.3172 71.9453C61.4811 71.8781 61.4875 71.8444 61.4875 70.9808V70.0836H61.2054C60.6541 70.0836 60.6674 70.1733 60.6674 66.6967V63.6349L61.0809 63.6013L61.4875 63.5676V62.7377V61.9077L61.0809 61.8741L60.6674 61.8405L60.6477 60.5171L60.6281 59.2049H60.0438H59.4531V60.5507Z" fill="#C1C2C2"/>
<path d="M36.7453 61.7732C36.404 61.9527 36.0299 62.3564 35.8921 62.6929C35.564 63.4667 35.4983 64.1845 35.4983 66.8313C35.4983 70.1733 35.6361 70.9135 36.3581 71.5976C37.08 72.2706 38.1301 72.08 38.6748 71.1715C39.1473 70.3977 39.2064 69.893 39.2064 66.7191C39.2064 64.2406 39.1933 64.0499 39.0554 63.4443C38.8651 62.648 38.5107 62.076 38.0513 61.8517C37.6904 61.6611 37.0275 61.6274 36.7453 61.7732ZM37.6707 63.4667C37.9594 63.7359 37.9922 64.0835 37.9922 66.8536C37.9922 69.2425 37.9791 69.5004 37.861 69.8257C37.6181 70.521 37.0209 70.4089 36.7978 69.635C36.6272 69.063 36.6206 64.577 36.7847 63.9826C36.9487 63.4218 37.349 63.1751 37.6707 63.4667Z" fill="#C1C2C2"/>
<path d="M46.9769 61.8292C46.721 61.9863 46.3994 62.3451 46.2616 62.6143C46.1435 62.8611 46.0647 62.7265 46.0647 62.2778V61.8965H45.5069H44.949V66.8312V71.7658H45.5396H46.1303V67.9079V64.0386L46.36 63.747C46.6751 63.3321 47.0557 63.2535 47.2395 63.5676C47.3773 63.8031 47.3773 63.8816 47.3773 67.7845V71.7658H47.968H48.5586V67.4144C48.5586 63.1302 48.5586 63.0629 48.4142 62.5694C48.1714 61.7508 47.5939 61.448 46.9769 61.8292Z" fill="#C1C2C2"/>
<path d="M55.6138 61.8293C55.2461 62.0312 54.9837 62.2779 54.8198 62.592C54.6032 62.9844 54.3995 63.7471 54.3537 64.3079L54.3143 64.8126H54.9114H55.502L55.5483 64.3415C55.6399 63.4218 56.2044 63.0294 56.6046 63.6125C56.7557 63.8369 56.7887 63.9938 56.8148 64.5546L56.8409 65.2163L56.3359 65.5864C54.9114 66.607 54.2552 67.9079 54.2552 69.7023C54.2552 70.3864 54.2813 70.6108 54.426 71.0257C54.7932 72.1024 55.6202 72.293 56.4604 71.508L56.8872 71.1043L56.9265 71.4407L56.9723 71.7659H57.5039H58.0419L58.0222 67.7061C58.0025 63.1751 57.9897 62.9621 57.5763 62.3565C57.1692 61.7396 56.2438 61.4929 55.6138 61.8293ZM56.8281 68.1098C56.8281 69.2088 56.8084 69.422 56.6967 69.6575C56.4077 70.2855 55.8564 70.4537 55.568 70.0051C55.3248 69.635 55.4824 68.4575 55.8565 67.8855C56.0666 67.5602 56.6967 66.8313 56.769 66.8313C56.8015 66.8313 56.8281 67.4033 56.8281 68.1098Z" fill="#C1C2C2"/>
<path d="M65.7009 61.874C65.3072 62.1208 65.0118 62.5469 64.8346 63.1302C64.6053 63.904 64.559 64.6554 64.5856 67.2236C64.6053 69.534 64.6181 69.7247 64.7628 70.2854C65.0709 71.463 65.7403 72.0686 66.6332 71.9676C67.1973 71.9003 67.5517 71.62 67.88 70.9583C68.2477 70.2294 68.2802 69.9041 68.2802 66.8312C68.2802 63.8591 68.2477 63.4666 67.9391 62.7601C67.5256 61.8292 66.4688 61.4143 65.7009 61.874ZM66.8695 63.6685C67.1186 64.0946 67.1451 64.5096 67.1185 67.2349C67.0989 69.1639 67.0861 69.5228 66.9807 69.7807C66.7381 70.42 66.1932 70.4312 65.9244 69.8256C65.7994 69.534 65.7866 69.3321 65.7669 67.2461C65.7536 66.0012 65.76 64.7563 65.7866 64.4872C65.8781 63.4442 66.4688 62.9956 66.8695 63.6685Z" fill="#C1C2C2"/>
<path d="M71.457 61.7732C71.2207 61.9077 71.0042 62.1096 70.7285 62.4797L70.479 62.8162V62.3564V61.8966H69.9213H69.3631V66.8312V71.7658H69.9538H70.5444V67.863V63.9714L70.761 63.7246C71.0239 63.4218 71.2798 63.3097 71.4964 63.3994C71.772 63.5227 71.7981 63.9826 71.7784 68.0425L71.7587 71.7658H72.3691H72.9795L72.9598 67.3583C72.9401 63.3097 72.9268 62.9284 72.8155 62.5358C72.6054 61.8181 72.0147 61.4928 71.457 61.7732Z" fill="#C1C2C2"/>
<path d="M40.2368 66.2931C40.2565 70.4987 40.263 70.723 40.3943 71.0931C40.7881 72.2483 41.6478 72.2931 42.4616 71.194L42.7176 70.8464V71.3062V71.766H43.3083H43.8989V66.8314V61.8967H43.2754H42.652V65.8108V69.7249L42.4091 69.9716C42.0679 70.308 41.8316 70.3642 41.6347 70.151L41.4706 69.9716V65.9341V61.8967H40.8406H40.2171L40.2368 66.2931Z" fill="#C1C2C2"/>
<path d="M62.3411 66.8314V71.766H62.9642H63.5879V66.8314V61.8967H62.9642H62.3411V66.8314Z" fill="#C1C2C2"/>
</g>
</svg>
