<svg width="199" height="88" viewBox="0 0 199 88" fill="none" xmlns="http://www.w3.org/2000/svg">
<g id="School Logo">
<path id="Vector" d="M98.9338 0.97404C98.598 1.12236 96.7192 1.78307 94.7666 2.45726C92.8139 3.13146 89.9654 4.12926 88.4231 4.6821C86.8807 5.22145 84.194 6.16532 82.4526 6.7721C80.7112 7.37887 77.2409 8.59242 74.7408 9.46886C72.2407 10.3453 68.7704 11.5588 67.0291 12.1792C63.6707 13.3523 59.9267 14.6601 55.3369 16.2782C53.7946 16.8175 51.0333 17.7884 49.1799 18.4356C47.3391 19.0828 43.8315 20.2964 41.406 21.1594C38.9805 22.0089 35.7092 23.155 34.1295 23.7078C32.5623 24.2606 30.6841 24.9214 29.9626 25.1776C29.2412 25.4203 27.077 26.1888 25.1366 26.8631C22.8479 27.6585 21.6289 28.1575 21.6538 28.2519C21.6912 28.3462 22.0145 29.4115 22.3752 30.6385C22.736 31.8655 23.0842 32.9173 23.134 32.9847C23.1838 33.0386 23.4947 32.9982 23.8305 32.8904C25.547 32.297 30.0498 30.7329 30.1865 30.679C30.2985 30.6251 30.3358 34.1712 30.3358 48.154V65.6966H32.8235H35.3112V59.6962V53.6959H37.2391H39.1671V59.6962V65.6966H41.6548H44.1424V51.8756V38.0546H41.6548H39.1671V43.5156V48.9765H37.2391H35.3112V38.9445V28.9125L35.647 28.7777C35.846 28.6968 37.5874 28.0766 39.5402 27.4024C41.493 26.7282 44.2668 25.7573 45.6972 25.2585C47.1401 24.746 49.8268 23.8022 51.6676 23.155C53.521 22.5212 56.842 21.3481 59.0436 20.5795C64.1185 18.7862 71.6562 16.1569 72.8751 15.7389C73.3851 15.5635 75.4623 14.8354 77.4773 14.1208C79.4923 13.4062 81.6566 12.651 82.2661 12.4488C82.888 12.2331 86.0225 11.1409 89.2316 10.0082C92.4531 8.87558 95.5008 7.81035 96.0102 7.63506C96.5205 7.44628 97.5774 7.08222 98.3489 6.81255L99.7417 6.31364L101.148 6.81255C103.013 7.47326 107.503 9.05087 111.621 10.4936C117.703 12.6106 120.153 13.4736 124.619 15.0512C130.042 16.9524 136.422 19.1907 138.176 19.7975C138.898 20.0402 141.56 20.9706 144.085 21.8605C146.623 22.7505 150.702 24.1797 153.165 25.0292C155.628 25.8922 159.471 27.2406 161.722 28.0362L165.79 29.4789V47.5877V65.6966H168.278H170.766V48.5451C170.766 36.7467 170.803 31.3666 170.89 31.3396C170.964 31.3127 172.158 31.6903 173.539 32.1757C174.932 32.6611 176.126 33.0656 176.2 33.0656C176.275 33.0656 176.661 32.0139 177.047 30.7329C177.445 29.4654 177.793 28.3462 177.818 28.2653C177.855 28.1575 176.636 27.6721 174.534 26.9304C168.252 24.7326 165.976 23.9236 162.431 22.6966C160.479 22.0089 157.717 21.038 156.274 20.5256C154.844 20.0268 152.232 19.1098 150.49 18.503C148.75 17.8963 145.279 16.6827 142.779 15.8062C140.279 14.9299 136.734 13.6759 134.88 13.0421C133.04 12.3949 131.049 11.6937 130.465 11.4779C129.88 11.2757 127.903 10.5745 126.049 9.92732C124.208 9.29357 121.522 8.34971 120.078 7.8508C118.648 7.33842 116.26 6.50242 114.793 5.99003C107.342 3.38765 104.804 2.49771 102.379 1.63475C100.924 1.12236 99.6922 0.704363 99.6428 0.717847C99.5924 0.717847 99.2818 0.839201 98.9338 0.97404Z" fill="#63C6E9"/>
<path id="Vector_2" d="M5.34701 37.8524C2.93397 38.4187 1.26722 40.0503 0.707495 42.356C0.272152 44.1764 0.496043 46.981 1.20503 48.5047C1.96378 50.1496 2.85934 51.2418 5.39677 53.6016C7.23765 55.314 7.74763 55.8533 8.30735 56.7298C8.81732 57.5388 9.06609 58.3344 9.06609 59.1973C9.06609 60.4513 8.53124 61.1256 7.34959 61.3278C5.93162 61.5705 5.01118 60.3974 4.76241 58.0242L4.68778 57.2422L4.04098 57.35C3.69271 57.404 2.66032 57.5523 1.73989 57.6872C0.570674 57.8624 0.0606994 57.9838 0.0109458 58.1186C-0.0263694 58.2265 0.0358226 58.8333 0.13533 59.4805C0.632865 62.5414 2.22498 64.8067 4.46389 65.6426C7.00132 66.6 10.2477 65.8853 12.0016 63.9841C13.9419 61.8941 14.3648 58.2804 13.0464 55.2196C12.3747 53.642 11.3796 52.388 9.14072 50.298C5.81967 47.1832 5.148 46.2394 5.148 44.6618C5.16044 43.2055 5.79479 42.3695 6.90181 42.3695C7.87201 42.3695 8.581 43.1651 8.81732 44.5269C8.89195 44.9179 8.96658 45.2685 9.0039 45.309C9.07853 45.3899 13.4693 44.9179 13.5812 44.81C13.631 44.7561 13.5937 44.2437 13.4942 43.6909C12.9468 40.6031 11.3299 38.54 8.87952 37.8389C8.0959 37.6097 6.3794 37.6232 5.34701 37.8524Z" fill="#63C6E9"/>
<path id="Vector_3" d="M19.9621 37.8658C18.0591 38.3646 16.579 39.5782 15.7953 41.2771C15.0988 42.7738 15.0988 42.8143 15.0988 51.8754C15.0988 60.9905 15.0988 61.0175 15.8202 62.5008C16.8775 64.6986 18.768 65.8987 21.3926 66.0605C24.8629 66.2762 27.4998 64.375 28.3083 61.0984C28.4576 60.4512 28.5198 59.6421 28.5198 57.8084L28.5322 55.3813H26.1067H23.6812L23.619 57.8353C23.5569 60.0467 23.532 60.3164 23.2957 60.6669C22.9473 61.1793 22.5494 61.3816 21.8777 61.3816C21.0941 61.3816 20.497 61.0175 20.1985 60.3703C19.9621 59.8444 19.9497 59.5612 19.9497 51.8754C19.9497 43.1514 19.9373 43.2323 20.696 42.6929C21.1687 42.3559 22.1264 42.2884 22.5991 42.5581C23.333 42.9626 23.5444 43.6638 23.619 45.8077L23.6812 47.6955H26.1067H28.5322L28.5198 45.8752C28.4949 43.5829 28.3456 42.7064 27.7237 41.3446C26.6415 38.9444 24.5271 37.6365 21.8031 37.6635C21.1935 37.6635 20.3602 37.7578 19.9621 37.8658Z" fill="#63C6E9"/>
<path id="Vector_4" d="M50.5481 37.8521C48.2222 38.4184 46.655 39.9287 45.9335 42.3153L45.5728 43.5153V51.8753C45.5728 59.615 45.5852 60.2892 45.7967 61.0444C46.4932 63.4579 47.6749 64.8333 49.7148 65.6018C51.7049 66.3435 54.1055 66.2086 55.9339 65.2648C56.9788 64.7255 58.1107 63.5119 58.5833 62.4062C59.3172 60.7072 59.3296 60.4106 59.2923 51.3495C59.255 43.367 59.2426 43.0839 58.9814 42.3692C58.0858 39.7938 56.6181 38.3915 54.2299 37.8386C53.2099 37.6094 51.5307 37.6094 50.5481 37.8521ZM53.6826 42.7198C54.317 43.2321 54.3294 43.3266 54.3294 51.8753C54.3294 60.4106 54.317 60.5185 53.695 61.0174C52.8493 61.7051 51.083 61.3275 50.7223 60.3972C50.5855 60.0465 50.5481 58.3746 50.5481 51.8079C50.5481 42.7333 50.5232 43.0703 51.3815 42.5849C51.9537 42.2749 53.2224 42.3422 53.6826 42.7198Z" fill="#63C6E9"/>
<path id="Vector_5" d="M66.1583 37.7449C63.4841 38.2303 61.4815 40.2124 60.9466 42.8957C60.7476 43.8935 60.7476 59.8449 60.9466 60.8562C61.3819 63.108 62.8124 64.807 64.9145 65.616C65.8722 65.9801 66.1209 66.0205 67.5265 66.034C69.156 66.034 70.2505 65.7778 71.4073 65.144C72.1785 64.7125 73.2855 63.4316 73.7208 62.4608C74.4547 60.8023 74.492 60.3168 74.492 51.8759C74.492 45.5385 74.4547 44.0688 74.3055 43.2058C73.6462 39.673 71.1585 37.6235 67.5887 37.6774C66.9792 37.6774 66.3324 37.7179 66.1583 37.7449ZM68.646 42.6125C69.5415 43.0845 69.5166 42.8282 69.5166 51.8759C69.5166 59.3056 69.5042 60.0067 69.2927 60.4382C68.7455 61.6382 66.6185 61.7057 65.9593 60.5326C65.7354 60.1146 65.723 59.791 65.723 51.8759C65.723 42.7339 65.6981 43.0575 66.5563 42.5991C67.1036 42.3024 68.0987 42.3159 68.646 42.6125Z" fill="#63C6E9"/>
<path id="Vector_6" d="M116.845 37.8523C114.494 38.4052 112.976 39.8749 112.193 42.3424L111.869 43.3807V51.8756V60.3704L112.218 61.476C112.864 63.5526 114.058 64.8605 116.011 65.6156C117.006 65.9932 117.218 66.0202 118.711 66.0202C120.129 66.0202 120.452 65.9662 121.347 65.6425C123.114 65.0223 124.457 63.647 125.104 61.8132C125.564 60.5052 125.638 59.022 125.589 50.9991C125.539 44.2841 125.514 43.2864 125.328 42.5852C124.668 40.1446 123.002 38.4591 120.626 37.8523C119.668 37.6096 117.865 37.6096 116.845 37.8523ZM119.718 42.5717C120.029 42.7065 120.215 42.9223 120.39 43.3403C120.626 43.8932 120.638 44.2841 120.638 51.8351C120.638 60.5052 120.638 60.5456 119.917 61.0715C119.444 61.4087 117.977 61.4087 117.504 61.0715C116.782 60.5456 116.782 60.5052 116.782 51.7677C116.782 44.2841 116.795 43.7582 117.006 43.3133C117.13 43.0571 117.429 42.7335 117.666 42.6122C118.175 42.3155 119.121 42.302 119.718 42.5717Z" fill="#63C6E9"/>
<path id="Vector_7" d="M75.7358 51.8755V65.6965H81.5197H87.3035V63.3368V60.9771H83.9452H80.5868V49.5159V38.0546H78.1613H75.7358V51.8755Z" fill="#63C6E9"/>
<path id="Vector_8" d="M98.7473 51.8755V65.6965H101.173H103.598V59.6961V53.6959H106.458H109.32V51.3362V48.9765H106.458H103.598V45.8753V42.7739H107.391H111.185V40.4143V38.0546H104.966H98.7473V51.8755Z" fill="#63C6E9"/>
<path id="Vector_9" d="M126.982 51.8755V65.6965H129.47H131.958V60.1681V54.6397H132.828C133.5 54.6397 133.698 54.6802 133.698 54.8285C133.698 54.9364 133.948 55.9477 134.258 57.0938C134.57 58.2264 135.018 59.858 135.254 60.7074C135.49 61.5569 135.888 63.0267 136.149 63.9706L136.622 65.6965H139.134H141.647L141.411 64.9144C140.9 63.2694 138.276 54.4105 138.152 53.952C138.027 53.4532 138.027 53.4532 138.948 52.4689C139.744 51.6058 139.93 51.3227 140.254 50.3923C140.764 48.99 140.963 47.3045 140.863 45.4572C140.689 42.2211 139.657 40.0907 137.716 38.958C136.448 38.2299 135.204 38.0546 130.876 38.0546H126.982V51.8755ZM134.271 42.6526C135.577 43.0167 136 44.0549 135.913 46.7382C135.876 48.0056 135.825 48.3428 135.564 48.8956C135.142 49.8125 134.669 50.0552 133.139 50.1496L131.958 50.2305V46.3607V42.5042H132.84C133.313 42.5042 133.96 42.5717 134.271 42.6526Z" fill="#63C6E9"/>
<path id="Vector_10" d="M152.232 51.8755V65.6965H158.078H163.924V63.3368V60.9771H160.565H157.207V49.5159V38.0546H154.72H152.232V51.8755Z" fill="#63C6E9"/>
<path id="Vector_11" d="M172.382 51.8755V65.6965H174.808H177.233L177.258 59.7231L177.296 53.7633L180.131 53.7229L182.954 53.6959V51.3631V49.0305L182.619 49.0169C182.42 49.0169 181.139 49.0035 179.758 48.99L177.233 48.9765V45.8753V42.7739H181.089H184.945V40.4143V38.0546H178.663H172.382V51.8755Z" fill="#63C6E9"/>
<path id="Vector_12" d="M186.438 51.8755V65.6965H192.719H199V63.3368V60.9771H195.207H191.413V57.3365V53.6959H194.149H196.886V51.3362V48.9765H194.149H191.413V45.8753V42.7739H194.958H198.503V40.4143V38.0546H192.47H186.438V51.8755Z" fill="#63C6E9"/>
<path id="Vector_13" d="M63.4841 70.982C62.5263 71.3461 62.1532 72.0877 62.0786 73.8136L62.0163 75.1351H61.382H60.7476L60.7601 76.1059C60.7601 76.8475 60.8098 77.0902 60.9467 77.1037C61.0461 77.1172 61.3323 77.1306 61.5935 77.1442L62.0537 77.1576V82.0793V87.0008H63.2353H64.417V82.0793V77.1576H65.0389H65.6608V76.1463V75.1351H65.0389H64.417V74.1372C64.417 73.0046 64.504 72.8563 65.2877 72.7484L65.7852 72.6675V71.7506V70.8202L64.8275 70.8337C64.2926 70.8337 63.6955 70.9011 63.4841 70.982Z" fill="#63C6E9"/>
<path id="Vector_14" d="M98.7966 71.144C98.7593 71.2519 98.7341 71.4137 98.7593 71.5081C98.7714 71.616 98.7714 72.6947 98.7593 73.9083L98.7472 76.1331L98.4113 75.7691C97.2172 74.542 95.3757 74.6094 94.58 75.9173C94.0828 76.7263 93.9951 77.6837 94.0455 81.5941C94.0828 85.0459 94.0949 85.2077 94.3813 85.8279C94.7787 86.7179 95.3636 87.1628 96.1967 87.2437C97.0549 87.3246 97.6772 87.0819 98.3367 86.4213L98.8712 85.882V86.4483V87.001H99.9907H101.11V78.9782V70.9553H99.9907C99.1446 70.9553 98.846 70.9958 98.7966 71.144ZM98.249 77.1579C98.5606 77.3331 98.7472 77.5354 98.7714 77.7242C98.7966 77.8994 98.7966 79.5445 98.7714 81.3783L98.7341 84.7223L98.2117 84.9785C97.5158 85.3291 97.2172 85.3156 96.7937 84.9246L96.4458 84.6009V81.0951V77.5894L96.7443 77.2388C97.1174 76.8072 97.5773 76.7938 98.249 77.1579Z" fill="#63C6E9"/>
<path id="Vector_15" d="M118.151 72.1014V73.2611L119.308 73.2206L120.452 73.1802V72.1014V71.0227L119.308 70.9822L118.151 70.9418V72.1014Z" fill="#63C6E9"/>
<path id="Vector_16" d="M112.678 73.5171V75.1352H112.056H111.421L111.459 76.106L111.496 77.0903L112.081 77.1307L112.666 77.1712L112.703 81.3782C112.74 85.5042 112.74 85.5987 113.026 86.0841C113.449 86.8257 114.046 87.1627 115.041 87.2436C115.514 87.2706 116.036 87.2706 116.211 87.2167C116.521 87.1358 116.533 87.0954 116.533 86.0571V84.9783H115.999C114.954 84.9783 114.979 85.0863 114.979 80.9063V77.2252L115.763 77.1848L116.533 77.1443V76.1465V75.1486L115.763 75.1082L114.979 75.0677L114.942 73.4767L114.905 71.899H113.797H112.678V73.5171Z" fill="#63C6E9"/>
<path id="Vector_17" d="M69.6411 74.987C68.9942 75.2028 68.2852 75.6882 68.024 76.0927C67.4022 77.0231 67.2777 77.886 67.2777 81.0682C67.2777 85.0864 67.5389 85.9763 68.9072 86.7988C70.2754 87.6079 72.2655 87.3787 73.298 86.2865C74.1935 85.3561 74.3055 84.7493 74.3055 80.9333C74.3055 77.9535 74.2805 77.7242 74.0193 76.9961C73.6586 76.0387 72.9869 75.351 72.1163 75.0814C71.4322 74.8522 70.1759 74.8117 69.6411 74.987ZM71.3949 77.0231C71.9421 77.3467 72.0043 77.7647 72.0043 81.0951C72.0043 83.9672 71.9794 84.2774 71.7555 84.6684C71.2953 85.5044 70.1635 85.3696 69.7405 84.4392C69.4172 83.7515 69.4047 78.358 69.7157 77.6433C70.0266 76.9691 70.7853 76.6725 71.3949 77.0231Z" fill="#63C6E9"/>
<path id="Vector_18" d="M89.0324 75.0543C88.5473 75.2431 87.9379 75.6745 87.6767 75.9981C87.4528 76.2948 87.3035 76.133 87.3035 75.5936V75.1352H86.2463H85.189V81.0681V87.0009H86.3084H87.4279V82.3626V77.7106L87.8632 77.36C88.4603 76.8611 89.1817 76.7667 89.53 77.1443C89.7912 77.4275 89.7912 77.5218 89.7912 82.2142V87.0009H90.9107H92.0301V81.7692C92.0301 76.6184 92.0301 76.5375 91.7564 75.9442C91.2962 74.9599 90.2017 74.5959 89.0324 75.0543Z" fill="#63C6E9"/>
<path id="Vector_19" d="M105.401 75.0543C104.704 75.297 104.207 75.5936 103.897 75.9712C103.486 76.4431 103.1 77.36 103.013 78.0343L102.939 78.641H104.07H105.19L105.277 78.0747C105.451 76.969 106.521 76.4971 107.279 77.1982C107.566 77.4679 107.628 77.6566 107.678 78.3309L107.727 79.1264L106.77 79.5714C104.07 80.7984 102.827 82.3626 102.827 84.5199C102.827 85.3424 102.876 85.6121 103.15 86.111C103.846 87.4055 105.413 87.6347 107.006 86.6909L107.815 86.2055L107.889 86.61L107.976 87.0009H108.984H110.003L109.966 82.1199C109.929 76.6724 109.904 76.4162 109.121 75.6881C108.349 74.9464 106.595 74.6498 105.401 75.0543ZM107.703 82.6053C107.703 83.9266 107.665 84.1829 107.454 84.4661C106.906 85.2211 105.861 85.4233 105.315 84.884C104.854 84.4391 105.152 83.0232 105.861 82.3356C106.26 81.9445 107.454 81.0681 107.591 81.0681C107.652 81.0681 107.703 81.7558 107.703 82.6053Z" fill="#63C6E9"/>
<path id="Vector_20" d="M124.519 75.1082C123.773 75.4049 123.213 75.9172 122.877 76.6184C122.442 77.5488 122.355 78.4522 122.405 81.54C122.442 84.3177 122.467 84.5469 122.741 85.2211C123.325 86.6369 124.593 87.365 126.286 87.2436C127.355 87.1627 128.026 86.8257 128.649 86.0301C129.346 85.1537 129.407 84.7626 129.407 81.0681C129.407 77.4948 129.346 77.0229 128.761 76.1735C127.977 75.0543 125.974 74.5554 124.519 75.1082ZM126.733 77.2657C127.206 77.778 127.256 78.2769 127.206 81.5535C127.168 83.8727 127.144 84.3042 126.944 84.6143C126.484 85.3829 125.452 85.3964 124.942 84.6683C124.705 84.3177 124.681 84.075 124.644 81.567C124.619 80.0703 124.631 78.5736 124.681 78.2499C124.855 76.9959 125.974 76.4566 126.733 77.2657Z" fill="#63C6E9"/>
<path id="Vector_21" d="M135.428 74.987C134.98 75.1488 134.57 75.3915 134.047 75.8365L133.574 76.241V75.6882V75.1353H132.517H131.46V81.0683V87.0011H132.579H133.699V82.3087V77.6299L134.109 77.3332C134.607 76.9691 135.092 76.8343 135.503 76.9422C136.025 77.0905 136.075 77.6433 136.037 82.5245L136 87.0011H137.157H138.313L138.276 81.7019C138.239 76.8343 138.214 76.3759 138.003 75.9039C137.604 75.041 136.485 74.6499 135.428 74.987Z" fill="#63C6E9"/>
<path id="Vector_22" d="M76.2583 80.421C76.2956 85.4774 76.308 85.747 76.5568 86.192C77.3031 87.5809 78.9326 87.6348 80.4749 86.3133L80.96 85.8954V86.4482V87.001H82.0795H83.1989V81.0682V75.1353H82.0172H80.8356V79.8411V84.547L80.3754 84.8436C79.7286 85.2481 79.2808 85.3156 78.9077 85.0593L78.5967 84.8436V79.9894V75.1353H77.4027H76.221L76.2583 80.421Z" fill="#63C6E9"/>
<path id="Vector_23" d="M118.151 81.0682V87.001H119.332H120.514V81.0682V75.1353H119.332H118.151V81.0682Z" fill="#63C6E9"/>
</g>
</svg>
