<svg width="20" height="20" viewBox="0 0 20 20" fill="none" xmlns="http://www.w3.org/2000/svg">
<g id="ph:plus-light">
<path id="Vector" d="M18.4001 10C18.4001 10.1422 18.3436 10.2786 18.2431 10.3791C18.1425 10.4797 18.0061 10.5362 17.8639 10.5362H10.5363V17.8638C10.5363 18.006 10.4798 18.1424 10.3792 18.243C10.2787 18.3435 10.1423 18.4 10.0001 18.4C9.8579 18.4 9.72152 18.3435 9.62097 18.243C9.52042 18.1424 9.46393 18.006 9.46393 17.8638V10.5362H2.13627C1.99407 10.5362 1.85769 10.4797 1.75714 10.3791C1.65659 10.2786 1.6001 10.1422 1.6001 10C1.6001 9.8578 1.65659 9.72142 1.75714 9.62087C1.85769 9.52032 1.99407 9.46383 2.13627 9.46383H9.46393V2.13617C9.46393 1.99397 9.52042 1.85759 9.62097 1.75704C9.72152 1.65649 9.8579 1.6 10.0001 1.6C10.1423 1.6 10.2787 1.65649 10.3792 1.75704C10.4798 1.85759 10.5363 1.99397 10.5363 2.13617V9.46383H17.8639C18.0061 9.46383 18.1425 9.52032 18.2431 9.62087C18.3436 9.72142 18.4001 9.8578 18.4001 10Z" fill="#2C2C2C"/>
</g>
</svg>
